<?xml version="1.0" encoding="UTF-8" standalone="no"?>
<!DOCTYPE svg PUBLIC "-//W3C//DTD SVG 1.1//EN" "http://www.w3.org/Graphics/SVG/1.1/DTD/svg11.dtd">
<svg xmlns="http://www.w3.org/2000/svg" version="1.1" viewBox="0.00 0.00 1140.00 860.00">
<g stroke-width="2.00" fill="none" stroke-linecap="butt">
<path stroke="#d098dc" vector-effect="non-scaling-stroke" d="
  M 962.8046 444.6801
  A 393.46 393.23 0.3 0 0 571.4089 49.3954
  A 393.46 393.23 0.3 0 0 175.8954 440.5599
  A 393.46 393.23 0.3 0 0 567.2911 835.8446
  A 393.46 393.23 0.3 0 0 962.8046 444.6801"
/>
<path stroke="#d098dc" vector-effect="non-scaling-stroke" d="
  M 564.77 123.22
  L 544.93 91.11
  A 1.92 1.91 -16.7 0 0 543.25 90.21
  L 523.33 90.80
  Q 522.79 90.82 522.58 91.33
  Q 522.17 92.32 522.24 94.00
  Q 523.69 128.86 525.21 163.72
  C 525.32 166.03 525.72 166.36 528.00 166.29
  Q 537.55 165.97 546.85 165.51
  A 1.02 1.02 0.0 0 0 547.82 164.45
  L 546.38 130.85
  A 0.25 0.25 0.0 0 1 546.84 130.71
  Q 556.73 146.82 566.68 162.79
  Q 567.82 164.62 570.00 164.57
  Q 578.94 164.36 588.55 163.83
  Q 589.84 163.76 589.79 162.46
  L 586.63 88.81
  A 0.48 0.48 0.0 0 0 586.13 88.35
  L 565.53 89.24
  Q 564.11 89.30 564.17 90.72
  L 565.49 123.00
  Q 565.55 124.49 564.77 123.22"
/>
<path stroke="#d098dc" vector-effect="non-scaling-stroke" d="
  M 647.18 153.76
  L 660.97 101.92
  Q 661.29 100.70 660.08 100.35
  C 657.59 99.64 641.22 94.71 640.17 95.41
  A 2.21 0.64 -28.4 0 0 639.01 96.55
  L 620.27 166.54
  A 1.19 1.19 0.0 0 0 621.11 168.00
  Q 640.16 173.15 659.34 178.11
  Q 661.29 178.62 662.23 176.24
  Q 665.19 168.71 667.70 161.22
  A 1.12 1.11 -73.5 0 0 666.93 159.79
  L 647.69 154.65
  Q 647.00 154.46 647.18 153.76"
/>
<path stroke="#d098dc" vector-effect="non-scaling-stroke" d="
  M 485.03 166.98
  C 493.34 144.82 478.14 115.52 453.85 112.54
  C 443.84 111.31 432.37 114.49 424.05 120.31
  C 407.57 131.85 404.61 150.65 412.43 168.13
  C 418.09 180.79 429.73 190.98 443.96 191.85
  C 460.26 192.84 479.23 182.46 485.03 166.98"
/>
<path stroke="#d098dc" vector-effect="non-scaling-stroke" d="
  M 745.5329 135.8330
  A 1.34 1.34 0.0 0 0 744.9820 134.0198
  L 727.4453 124.6561
  A 1.34 1.34 0.0 0 0 725.6321 125.2070
  L 691.2671 189.5670
  A 1.34 1.34 0.0 0 0 691.8180 191.3802
  L 709.3547 200.7439
  A 1.34 1.34 0.0 0 0 711.1679 200.1930
  L 745.5329 135.8330"
/>
<path stroke="#d098dc" vector-effect="non-scaling-stroke" d="
  M 357.64 224.35
  L 368.02 214.83
  A 0.75 0.75 0.0 0 1 369.08 214.87
  L 385.32 232.27
  Q 386.21 233.23 387.18 232.35
  L 402.97 218.01
  A 0.89 0.88 -42.5 0 0 403.03 216.76
  L 353.40 162.93
  Q 352.33 161.78 351.18 162.85
  L 335.50 177.45
  Q 334.96 177.95 335.46 178.48
  L 355.25 199.84
  A 0.34 0.34 0.0 0 1 355.23 200.32
  L 344.43 210.19
  A 0.47 0.46 47.2 0 1 343.77 210.16
  Q 335.14 200.72 326.49 191.26
  Q 325.35 190.01 323.86 188.91
  Q 323.34 188.54 322.88 188.97
  L 306.91 203.77
  Q 306.40 204.24 306.84 204.77
  Q 308.37 206.64 311.49 210.01
  Q 332.56 232.81 353.70 255.55
  Q 355.75 257.76 357.36 259.11
  Q 357.89 259.55 358.40 259.08
  L 374.14 244.60
  A 1.12 1.12 0.0 0 0 374.20 243.01
  L 357.61 225.10
  Q 357.25 224.71 357.64 224.35"
/>
<path stroke="#d098dc" vector-effect="non-scaling-stroke" d="
  M 819.93 192.97
  A 0.32 0.32 0.0 0 0 819.48 192.98
  L 796.08 217.64
  A 0.32 0.32 0.0 0 1 795.54 217.34
  L 805.29 179.23
  A 0.32 0.32 0.0 0 0 805.20 178.92
  L 789.45 164.16
  A 0.32 0.32 0.0 0 0 789.00 164.17
  L 737.47 218.56
  A 0.32 0.32 0.0 0 0 737.48 219.01
  L 753.34 234.01
  A 0.32 0.32 0.0 0 0 753.79 234.00
  L 777.22 209.43
  A 0.32 0.32 0.0 0 1 777.76 209.73
  L 768.14 247.71
  A 0.32 0.32 0.0 0 0 768.22 248.02
  L 783.82 263.01
  A 0.32 0.32 0.0 0 0 784.27 263.00
  L 835.89 208.53
  A 0.32 0.32 0.0 0 0 835.88 208.08
  L 819.93 192.97"
/>
<path stroke="#d098dc" vector-effect="non-scaling-stroke" d="
  M 561.50 199.81
  Q 479.87 201.84 416.66 253.41
  C 359.42 300.12 325.84 366.56 326.21 441.05
  Q 326.26 450.99 326.86 461.04
  C 331.80 543.06 379.27 613.16 449.30 654.38
  C 487.43 676.81 530.93 686.31 575.98 685.26
  Q 655.31 683.41 716.57 636.03
  C 787.42 581.24 821.37 500.53 810.64 411.06
  C 802.90 346.42 769.76 291.30 719.05 250.95
  C 673.06 214.35 620.24 198.36 561.50 199.81"
/>
<path stroke="#d098dc" vector-effect="non-scaling-stroke" d="
  M 854.72 284.05
  L 861.32 280.60
  Q 861.84 280.32 862.12 280.84
  L 876.04 306.50
  A 0.53 0.53 0.0 0 0 876.76 306.72
  L 892.10 298.62
  A 1.81 1.80 61.9 0 0 892.84 296.17
  L 869.05 252.06
  A 1.18 1.18 0.0 0 0 867.46 251.58
  Q 835.78 268.55 803.89 285.56
  Q 801.75 286.70 802.99 289.00
  Q 814.66 310.68 826.75 332.98
  Q 827.63 334.60 829.24 333.73
  L 844.24 325.64
  Q 844.95 325.25 844.57 324.55
  L 830.30 298.12
  A 0.66 0.66 0.0 0 1 830.57 297.23
  L 837.75 293.32
  A 0.51 0.51 0.0 0 1 838.44 293.52
  L 848.83 312.52
  A 0.88 0.87 64.2 0 0 849.94 312.91
  L 865.09 306.53
  A 0.86 0.86 0.0 0 0 865.51 305.33
  L 854.48 284.84
  Q 854.20 284.33 854.72 284.05"
/>
<path stroke="#d098dc" vector-effect="non-scaling-stroke" d="
  M 300.56 301.91
  C 302.32 301.32 306.06 301.94 307.44 302.02
  Q 316.97 302.57 326.51 303.13
  Q 328.45 303.24 329.57 301.31
  Q 335.64 290.94 340.73 281.33
  Q 341.80 279.30 339.51 279.43
  L 307.27 281.14
  Q 306.87 281.16 306.87 280.76
  C 306.47 255.26 274.46 246.15 261.55 268.56
  Q 253.59 282.39 245.50 297.19
  A 1.21 1.20 28.7 0 0 245.98 298.82
  L 310.07 334.41
  A 1.07 1.07 0.0 0 0 311.53 333.99
  L 321.17 316.69
  Q 321.96 315.27 320.54 314.48
  L 300.43 303.26
  Q 298.97 302.44 300.56 301.91"
/>
<path stroke="#d098dc" vector-effect="non-scaling-stroke" d="
  M 840.92 448.45
  C 836.62 448.50 829.87 448.08 824.22 448.63
  Q 823.78 448.67 823.77 449.11
  Q 822.41 530.26 773.65 594.42
  C 733.63 647.09 677.61 683.16 611.74 693.45
  C 533.64 705.65 457.01 685.08 398.81 631.32
  C 345.80 582.35 317.23 523.07 314.67 449.25
  A 0.92 0.92 0.0 0 0 313.75 448.36
  L 188.34 448.21
  Q 187.11 448.21 187.14 449.44
  C 191.10 634.40 324.99 789.22 507.88 819.48
  C 666.82 845.77 827.12 767.41 904.34 626.58
  Q 949.10 544.94 951.77 449.77
  Q 951.82 448.11 950.16 448.16
  Q 937.97 448.55 924.75 448.41
  Q 882.83 447.95 840.92 448.45"
/>
<path stroke="#d098dc" vector-effect="non-scaling-stroke" d="
  M 454.5870 168.3059
  A 17.57 15.15 67.7 0 0 461.9369 146.3012
  A 17.57 15.15 67.7 0 0 441.2530 135.7941
  A 17.57 15.15 67.7 0 0 433.9031 157.7988
  A 17.57 15.15 67.7 0 0 454.5870 168.3059"
/>
<path stroke="#d098dc" vector-effect="non-scaling-stroke" d="
  M 800.29 442.64
  A 230.89 230.89 0.0 0 0 569.40 211.75
  A 230.89 230.89 0.0 0 0 338.51 442.64
  A 230.89 230.89 0.0 0 0 569.40 673.53
  A 230.89 230.89 0.0 0 0 800.29 442.64"
/>
<path stroke="#d098dc" vector-effect="non-scaling-stroke" d="
  M 789.45 442.64
  A 220.05 220.05 0.0 0 0 569.40 222.59
  A 220.05 220.05 0.0 0 0 349.35 442.64
  A 220.05 220.05 0.0 0 0 569.40 662.69
  A 220.05 220.05 0.0 0 0 789.45 442.64"
/>
<path stroke="#d098dc" vector-effect="non-scaling-stroke" d="
  M 774.53 442.64
  A 205.12 205.12 0.0 0 0 569.41 237.52
  A 205.12 205.12 0.0 0 0 364.29 442.64
  A 205.12 205.12 0.0 0 0 569.41 647.76
  A 205.12 205.12 0.0 0 0 774.53 442.64"
/>
<path stroke="#d098dc" vector-effect="non-scaling-stroke" d="
  M 533.00 312.36
  C 552.18 288.61 589.80 288.74 609.86 310.90
  C 624.79 327.38 632.18 357.11 634.65 379.24
  Q 637.80 407.51 637.66 436.03
  A 0.94 0.94 0.0 0 0 638.64 436.98
  C 649.48 436.51 658.46 435.68 666.89 428.14
  Q 667.47 427.62 667.44 425.76
  C 666.98 397.82 665.02 367.81 657.09 341.96
  C 653.45 330.10 649.27 317.44 643.33 307.42
  C 632.64 289.39 617.01 276.49 596.26 271.22
  C 557.29 261.33 518.16 275.29 499.04 312.06
  Q 498.85 312.42 499.25 312.42
  L 532.13 312.77
  Q 532.66 312.78 533.00 312.36"
/>
<path stroke="#d098dc" vector-effect="non-scaling-stroke" d="
  M 464.25 341.00
  A 0.25 0.25 0.0 0 1 464.50 340.75
  L 621.45 340.75
  A 0.83 0.82 81.0 0 0 622.23 339.67
  C 621.12 336.33 612.57 315.75 609.00 315.75
  Q 523.05 315.75 437.24 315.75
  A 0.49 0.49 0.0 0 0 436.75 316.24
  L 436.75 568.75
  Q 436.75 569.50 437.50 569.50
  L 463.75 569.50
  Q 464.25 569.50 464.25 569.00
  L 464.25 466.72
  A 0.77 0.77 0.0 0 1 465.04 465.95
  L 471.47 466.12
  Q 472.07 466.13 472.06 465.53
  L 471.69 441.97
  Q 471.68 441.50 471.22 441.50
  L 464.90 441.49
  Q 464.25 441.49 464.25 440.84
  L 464.25 341.00"
/>
<path stroke="#d098dc" vector-effect="non-scaling-stroke" d="
  M 679.12 456.75
  C 708.58 437.66 714.39 400.03 707.73 367.75
  C 701.87 339.29 681.10 321.61 652.87 317.51
  A 0.34 0.34 0.0 0 0 652.50 317.95
  L 661.98 346.60
  Q 662.14 347.09 662.59 347.34
  Q 675.43 354.74 678.97 368.76
  C 683.67 387.34 683.68 421.50 665.26 434.15
  C 657.42 439.53 648.27 440.05 638.74 440.19
  Q 556.95 441.40 508.96 441.59
  Q 508.44 441.59 508.45 442.11
  L 508.63 465.43
  Q 508.63 466.02 509.22 466.01
  Q 572.89 465.95 636.56 466.06
  C 652.64 466.09 669.29 474.86 672.76 491.75
  Q 675.19 503.60 675.13 517.50
  Q 675.04 542.04 674.88 566.58
  Q 674.88 567.00 675.30 567.00
  L 704.49 567.00
  Q 705.11 567.00 705.11 566.38
  Q 704.96 535.09 704.97 503.79
  C 704.98 483.11 701.48 464.82 679.21 457.48
  Q 678.40 457.22 679.12 456.75"
/>
<path stroke="#d098dc" vector-effect="non-scaling-stroke" d="
  M 599.02 583.55
  C 582.71 594.19 559.94 594.21 543.76 583.31
  C 511.90 561.85 506.54 500.07 505.59 465.25
  C 504.42 422.05 504.68 383.40 516.32 344.21
  Q 516.46 343.75 515.97 343.75
  L 486.51 343.75
  Q 485.99 343.75 485.86 344.25
  C 473.91 389.46 473.13 436.97 476.41 483.68
  C 479.93 533.79 492.81 606.44 554.52 615.56
  C 639.26 628.08 661.72 551.72 665.75 485.99
  C 666.36 475.95 645.51 470.23 637.69 469.51
  Q 637.05 469.45 637.03 470.09
  Q 636.04 497.89 630.61 525.17
  C 626.46 545.97 617.73 571.33 599.02 583.55"
/>
<path stroke="#d098dc" vector-effect="non-scaling-stroke" d="
  M 273.80 288.39
  L 282.69 293.27
  A 0.70 0.70 0.0 0 0 283.64 292.99
  L 286.49 287.80
  A 5.85 5.37 -61.2 0 0 284.61 280.08
  L 283.91 279.70
  A 5.85 5.37 -61.2 0 0 276.38 282.24
  L 273.52 287.44
  A 0.70 0.70 0.0 0 0 273.80 288.39"
/>
<path stroke="#d098dc" vector-effect="non-scaling-stroke" d="
  M 276.48 595.54
  A 0.63 0.63 0.0 0 1 277.30 596.46
  L 261.24 619.07
  A 0.96 0.95 -42.2 0 0 261.19 620.08
  L 273.35 641.85
  A 1.05 1.05 0.0 0 0 275.19 641.85
  L 291.03 613.51
  Q 291.27 613.08 291.71 613.31
  Q 307.64 621.74 320.00 611.75
  C 329.61 603.98 331.16 591.23 325.53 580.47
  Q 318.12 566.31 310.12 552.55
  A 1.58 1.57 -29.4 0 0 308.00 551.96
  L 244.00 587.56
  A 0.78 0.78 0.0 0 0 243.70 588.62
  L 253.46 606.10
  A 1.78 1.77 61.1 0 0 255.86 606.80
  L 276.48 595.54"
/>
<path stroke="#d098dc" vector-effect="non-scaling-stroke" d="
  M 831.83 588.04
  L 845.52 562.67
  A 0.87 0.86 -61.7 0 0 845.17 561.49
  L 829.73 553.19
  A 1.33 1.33 0.0 0 0 827.93 553.73
  L 803.71 598.71
  A 0.70 0.69 -61.4 0 0 803.98 599.65
  Q 835.02 616.42 865.98 633.04
  Q 868.16 634.21 869.61 634.61
  Q 870.20 634.78 870.49 634.24
  L 895.37 588.01
  A 0.72 0.71 28.4 0 0 895.08 587.05
  L 879.37 578.59
  Q 878.39 578.06 877.86 579.05
  L 863.67 605.15
  A 0.60 0.60 0.0 0 1 862.86 605.40
  L 855.63 601.65
  Q 855.18 601.42 855.42 600.97
  L 865.66 581.89
  A 0.99 0.98 31.1 0 0 865.34 580.60
  L 851.72 571.49
  A 0.85 0.85 0.0 0 0 850.50 571.79
  L 839.58 591.84
  Q 839.11 592.70 838.25 592.23
  L 832.08 588.89
  Q 831.53 588.59 831.83 588.04"
/>
<path stroke="#d098dc" vector-effect="non-scaling-stroke" d="
  M 769.19 638.58
  A 0.35 0.35 0.0 0 0 769.17 639.08
  L 792.37 663.77
  A 0.35 0.35 0.0 0 1 792.01 664.35
  L 754.80 652.62
  A 0.35 0.35 0.0 0 0 754.46 652.70
  L 738.64 667.47
  A 0.35 0.35 0.0 0 0 738.62 667.97
  L 790.13 722.36
  A 0.35 0.35 0.0 0 0 790.62 722.37
  L 806.54 707.48
  A 0.35 0.35 0.0 0 0 806.56 706.98
  L 783.42 682.49
  A 0.35 0.35 0.0 0 1 783.77 681.91
  L 821.15 693.29
  A 0.35 0.35 0.0 0 0 821.49 693.21
  L 837.01 678.52
  A 0.35 0.35 0.0 0 0 837.02 678.03
  L 785.64 623.72
  A 0.35 0.35 0.0 0 0 785.15 623.71
  L 769.19 638.58"
/>
<path stroke="#d098dc" vector-effect="non-scaling-stroke" d="
  M 339.61 679.72
  A 0.70 0.70 0.0 0 1 340.60 679.68
  L 350.86 689.18
  A 0.70 0.70 0.0 0 1 350.89 690.17
  L 334.15 708.25
  A 0.70 0.70 0.0 0 0 334.18 709.24
  L 350.46 724.30
  A 0.70 0.70 0.0 0 0 351.45 724.27
  L 401.90 669.84
  A 0.70 0.70 0.0 0 0 401.87 668.85
  L 385.63 653.79
  A 0.70 0.70 0.0 0 0 384.64 653.83
  L 364.96 674.93
  A 0.70 0.70 0.0 0 1 363.97 674.96
  L 353.76 665.46
  A 0.70 0.70 0.0 0 1 353.72 664.47
  L 373.37 643.25
  A 0.70 0.70 0.0 0 0 373.33 642.25
  L 356.90 627.32
  A 0.70 0.70 0.0 0 0 355.92 627.36
  L 305.48 681.82
  A 0.70 0.70 0.0 0 0 305.52 682.82
  L 321.85 697.74
  A 0.70 0.70 0.0 0 0 322.83 697.70
  L 339.61 679.72"
/>
<path stroke="#d098dc" vector-effect="non-scaling-stroke" d="
  M 712.0196 686.6141
  A 1.30 1.30 0.0 0 0 710.2606 686.0796
  L 692.6709 695.4716
  A 1.30 1.30 0.0 0 0 692.1365 697.2307
  L 726.5204 761.6259
  A 1.30 1.30 0.0 0 0 728.2794 762.1604
  L 745.8691 752.7684
  A 1.30 1.30 0.0 0 0 746.4035 751.0093
  L 712.0196 686.6141"
/>
<path stroke="#d098dc" vector-effect="non-scaling-stroke" d="
  M 428.20 769.27
  C 474.22 794.19 510.54 725.93 467.62 700.90
  C 420.43 673.39 382.77 744.68 428.20 769.27"
/>
<path stroke="#d098dc" vector-effect="non-scaling-stroke" d="
  M 678.19 762.88
  A 1.03 1.03 0.0 0 0 676.91 762.06
  L 657.80 767.17
  A 1.03 1.03 0.0 0 1 656.54 766.45
  L 642.59 714.46
  A 1.03 1.03 0.0 0 0 641.33 713.73
  L 621.42 718.98
  A 1.03 1.03 0.0 0 0 620.69 720.24
  L 639.64 791.24
  A 1.03 1.03 0.0 0 0 640.91 791.97
  L 680.42 781.42
  A 1.03 1.03 0.0 0 0 681.17 780.25
  L 678.19 762.88"
/>
<path stroke="#d098dc" vector-effect="non-scaling-stroke" d="
  M 565.73 756.50
  A 0.35 0.35 0.0 0 1 565.07 756.64
  L 547.57 721.67
  A 0.35 0.35 0.0 0 0 547.28 721.48
  L 525.60 720.48
  A 0.35 0.35 0.0 0 0 525.24 720.81
  L 522.04 795.72
  A 0.35 0.35 0.0 0 0 522.38 796.08
  L 544.25 796.93
  A 0.35 0.35 0.0 0 0 544.61 796.59
  L 546.00 762.79
  A 0.35 0.35 0.0 0 1 546.66 762.65
  L 564.41 797.71
  A 0.35 0.35 0.0 0 0 564.71 797.90
  L 586.20 798.77
  A 0.35 0.35 0.0 0 0 586.56 798.43
  L 589.76 723.67
  A 0.35 0.35 0.0 0 0 589.42 723.30
  L 567.61 722.36
  A 0.35 0.35 0.0 0 0 567.24 722.69
  L 565.73 756.50"
/>
<path stroke="#d098dc" vector-effect="non-scaling-stroke" d="
  M 302.55 580.94
  L 293.71 585.86
  A 0.71 0.71 0.0 0 0 293.43 586.83
  L 296.26 591.90
  A 6.07 5.58 60.9 0 0 304.08 594.49
  L 304.42 594.30
  A 6.07 5.58 60.9 0 0 306.34 586.29
  L 303.52 581.22
  A 0.71 0.71 0.0 0 0 302.55 580.94"
/>
<path stroke="#d098dc" vector-effect="non-scaling-stroke" d="
  M 440.4098 750.8401
  A 17.46 15.12 113.1 0 0 461.1677 740.7121
  A 17.46 15.12 113.1 0 0 454.1102 718.7199
  A 17.46 15.12 113.1 0 0 433.3523 728.8479
  A 17.46 15.12 113.1 0 0 440.4098 750.8401"
/>
</g>
<path fill="#a030b9" d="
  M 0.00 0.00
  L 1140.00 0.00
  L 1140.00 860.00
  L 0.00 860.00
  L 0.00 0.00
  Z
  M 962.8046 444.6801
  A 393.46 393.23 0.3 0 0 571.4089 49.3954
  A 393.46 393.23 0.3 0 0 175.8954 440.5599
  A 393.46 393.23 0.3 0 0 567.2911 835.8446
  A 393.46 393.23 0.3 0 0 962.8046 444.6801
  Z"
/>
<path fill="#ffffff" d="
  M 962.8046 444.6801
  A 393.46 393.23 0.3 0 1 567.2911 835.8446
  A 393.46 393.23 0.3 0 1 175.8954 440.5599
  A 393.46 393.23 0.3 0 1 571.4089 49.3954
  A 393.46 393.23 0.3 0 1 962.8046 444.6801
  Z
  M 564.77 123.22
  L 544.93 91.11
  A 1.92 1.91 -16.7 0 0 543.25 90.21
  L 523.33 90.80
  Q 522.79 90.82 522.58 91.33
  Q 522.17 92.32 522.24 94.00
  Q 523.69 128.86 525.21 163.72
  C 525.32 166.03 525.72 166.36 528.00 166.29
  Q 537.55 165.97 546.85 165.51
  A 1.02 1.02 0.0 0 0 547.82 164.45
  L 546.38 130.85
  A 0.25 0.25 0.0 0 1 546.84 130.71
  Q 556.73 146.82 566.68 162.79
  Q 567.82 164.62 570.00 164.57
  Q 578.94 164.36 588.55 163.83
  Q 589.84 163.76 589.79 162.46
  L 586.63 88.81
  A 0.48 0.48 0.0 0 0 586.13 88.35
  L 565.53 89.24
  Q 564.11 89.30 564.17 90.72
  L 565.49 123.00
  Q 565.55 124.49 564.77 123.22
  Z
  M 647.18 153.76
  L 660.97 101.92
  Q 661.29 100.70 660.08 100.35
  C 657.59 99.64 641.22 94.71 640.17 95.41
  A 2.21 0.64 -28.4 0 0 639.01 96.55
  L 620.27 166.54
  A 1.19 1.19 0.0 0 0 621.11 168.00
  Q 640.16 173.15 659.34 178.11
  Q 661.29 178.62 662.23 176.24
  Q 665.19 168.71 667.70 161.22
  A 1.12 1.11 -73.5 0 0 666.93 159.79
  L 647.69 154.65
  Q 647.00 154.46 647.18 153.76
  Z
  M 485.03 166.98
  C 493.34 144.82 478.14 115.52 453.85 112.54
  C 443.84 111.31 432.37 114.49 424.05 120.31
  C 407.57 131.85 404.61 150.65 412.43 168.13
  C 418.09 180.79 429.73 190.98 443.96 191.85
  C 460.26 192.84 479.23 182.46 485.03 166.98
  Z
  M 745.5329 135.8330
  A 1.34 1.34 0.0 0 0 744.9820 134.0198
  L 727.4453 124.6561
  A 1.34 1.34 0.0 0 0 725.6321 125.2070
  L 691.2671 189.5670
  A 1.34 1.34 0.0 0 0 691.8180 191.3802
  L 709.3547 200.7439
  A 1.34 1.34 0.0 0 0 711.1679 200.1930
  L 745.5329 135.8330
  Z
  M 357.64 224.35
  L 368.02 214.83
  A 0.75 0.75 0.0 0 1 369.08 214.87
  L 385.32 232.27
  Q 386.21 233.23 387.18 232.35
  L 402.97 218.01
  A 0.89 0.88 -42.5 0 0 403.03 216.76
  L 353.40 162.93
  Q 352.33 161.78 351.18 162.85
  L 335.50 177.45
  Q 334.96 177.95 335.46 178.48
  L 355.25 199.84
  A 0.34 0.34 0.0 0 1 355.23 200.32
  L 344.43 210.19
  A 0.47 0.46 47.2 0 1 343.77 210.16
  Q 335.14 200.72 326.49 191.26
  Q 325.35 190.01 323.86 188.91
  Q 323.34 188.54 322.88 188.97
  L 306.91 203.77
  Q 306.40 204.24 306.84 204.77
  Q 308.37 206.64 311.49 210.01
  Q 332.56 232.81 353.70 255.55
  Q 355.75 257.76 357.36 259.11
  Q 357.89 259.55 358.40 259.08
  L 374.14 244.60
  A 1.12 1.12 0.0 0 0 374.20 243.01
  L 357.61 225.10
  Q 357.25 224.71 357.64 224.35
  Z
  M 819.93 192.97
  A 0.32 0.32 0.0 0 0 819.48 192.98
  L 796.08 217.64
  A 0.32 0.32 0.0 0 1 795.54 217.34
  L 805.29 179.23
  A 0.32 0.32 0.0 0 0 805.20 178.92
  L 789.45 164.16
  A 0.32 0.32 0.0 0 0 789.00 164.17
  L 737.47 218.56
  A 0.32 0.32 0.0 0 0 737.48 219.01
  L 753.34 234.01
  A 0.32 0.32 0.0 0 0 753.79 234.00
  L 777.22 209.43
  A 0.32 0.32 0.0 0 1 777.76 209.73
  L 768.14 247.71
  A 0.32 0.32 0.0 0 0 768.22 248.02
  L 783.82 263.01
  A 0.32 0.32 0.0 0 0 784.27 263.00
  L 835.89 208.53
  A 0.32 0.32 0.0 0 0 835.88 208.08
  L 819.93 192.97
  Z
  M 561.50 199.81
  Q 479.87 201.84 416.66 253.41
  C 359.42 300.12 325.84 366.56 326.21 441.05
  Q 326.26 450.99 326.86 461.04
  C 331.80 543.06 379.27 613.16 449.30 654.38
  C 487.43 676.81 530.93 686.31 575.98 685.26
  Q 655.31 683.41 716.57 636.03
  C 787.42 581.24 821.37 500.53 810.64 411.06
  C 802.90 346.42 769.76 291.30 719.05 250.95
  C 673.06 214.35 620.24 198.36 561.50 199.81
  Z
  M 854.72 284.05
  L 861.32 280.60
  Q 861.84 280.32 862.12 280.84
  L 876.04 306.50
  A 0.53 0.53 0.0 0 0 876.76 306.72
  L 892.10 298.62
  A 1.81 1.80 61.9 0 0 892.84 296.17
  L 869.05 252.06
  A 1.18 1.18 0.0 0 0 867.46 251.58
  Q 835.78 268.55 803.89 285.56
  Q 801.75 286.70 802.99 289.00
  Q 814.66 310.68 826.75 332.98
  Q 827.63 334.60 829.24 333.73
  L 844.24 325.64
  Q 844.95 325.25 844.57 324.55
  L 830.30 298.12
  A 0.66 0.66 0.0 0 1 830.57 297.23
  L 837.75 293.32
  A 0.51 0.51 0.0 0 1 838.44 293.52
  L 848.83 312.52
  A 0.88 0.87 64.2 0 0 849.94 312.91
  L 865.09 306.53
  A 0.86 0.86 0.0 0 0 865.51 305.33
  L 854.48 284.84
  Q 854.20 284.33 854.72 284.05
  Z
  M 300.56 301.91
  C 302.32 301.32 306.06 301.94 307.44 302.02
  Q 316.97 302.57 326.51 303.13
  Q 328.45 303.24 329.57 301.31
  Q 335.64 290.94 340.73 281.33
  Q 341.80 279.30 339.51 279.43
  L 307.27 281.14
  Q 306.87 281.16 306.87 280.76
  C 306.47 255.26 274.46 246.15 261.55 268.56
  Q 253.59 282.39 245.50 297.19
  A 1.21 1.20 28.7 0 0 245.98 298.82
  L 310.07 334.41
  A 1.07 1.07 0.0 0 0 311.53 333.99
  L 321.17 316.69
  Q 321.96 315.27 320.54 314.48
  L 300.43 303.26
  Q 298.97 302.44 300.56 301.91
  Z
  M 840.92 448.45
  C 836.62 448.50 829.87 448.08 824.22 448.63
  Q 823.78 448.67 823.77 449.11
  Q 822.41 530.26 773.65 594.42
  C 733.63 647.09 677.61 683.16 611.74 693.45
  C 533.64 705.65 457.01 685.08 398.81 631.32
  C 345.80 582.35 317.23 523.07 314.67 449.25
  A 0.92 0.92 0.0 0 0 313.75 448.36
  L 188.34 448.21
  Q 187.11 448.21 187.14 449.44
  C 191.10 634.40 324.99 789.22 507.88 819.48
  C 666.82 845.77 827.12 767.41 904.34 626.58
  Q 949.10 544.94 951.77 449.77
  Q 951.82 448.11 950.16 448.16
  Q 937.97 448.55 924.75 448.41
  Q 882.83 447.95 840.92 448.45
  Z"
/>
<path fill="#a030b9" d="
  M 564.77 123.22
  Q 565.55 124.49 565.49 123.00
  L 564.17 90.72
  Q 564.11 89.30 565.53 89.24
  L 586.13 88.35
  A 0.48 0.48 0.0 0 1 586.63 88.81
  L 589.79 162.46
  Q 589.84 163.76 588.55 163.83
  Q 578.94 164.36 570.00 164.57
  Q 567.82 164.62 566.68 162.79
  Q 556.73 146.82 546.84 130.71
  A 0.25 0.25 0.0 0 0 546.38 130.85
  L 547.82 164.45
  A 1.02 1.02 0.0 0 1 546.85 165.51
  Q 537.55 165.97 528.00 166.29
  C 525.72 166.36 525.32 166.03 525.21 163.72
  Q 523.69 128.86 522.24 94.00
  Q 522.17 92.32 522.58 91.33
  Q 522.79 90.82 523.33 90.80
  L 543.25 90.21
  A 1.92 1.91 -16.7 0 1 544.93 91.11
  L 564.77 123.22
  Z"
/>
<path fill="#a030b9" d="
  M 647.69 154.65
  L 666.93 159.79
  A 1.12 1.11 -73.5 0 1 667.70 161.22
  Q 665.19 168.71 662.23 176.24
  Q 661.29 178.62 659.34 178.11
  Q 640.16 173.15 621.11 168.00
  A 1.19 1.19 0.0 0 1 620.27 166.54
  L 639.01 96.55
  A 2.21 0.64 -28.4 0 1 640.17 95.41
  C 641.22 94.71 657.59 99.64 660.08 100.35
  Q 661.29 100.70 660.97 101.92
  L 647.18 153.76
  Q 647.00 154.46 647.69 154.65
  Z"
/>
<path fill="#a030b9" d="
  M 485.03 166.98
  C 479.23 182.46 460.26 192.84 443.96 191.85
  C 429.73 190.98 418.09 180.79 412.43 168.13
  C 404.61 150.65 407.57 131.85 424.05 120.31
  C 432.37 114.49 443.84 111.31 453.85 112.54
  C 478.14 115.52 493.34 144.82 485.03 166.98
  Z
  M 454.5870 168.3059
  A 17.57 15.15 67.7 0 0 461.9369 146.3012
  A 17.57 15.15 67.7 0 0 441.2530 135.7941
  A 17.57 15.15 67.7 0 0 433.9031 157.7988
  A 17.57 15.15 67.7 0 0 454.5870 168.3059
  Z"
/>
<rect fill="#a030b9" x="-11.28" y="-37.82" transform="translate(718.40,162.70) rotate(28.1)" width="22.56" height="75.64" rx="1.34"/>
<ellipse fill="#ffffff" cx="0.00" cy="0.00" transform="translate(447.92,152.05) rotate(67.7)" rx="17.57" ry="15.15"/>
<path fill="#a030b9" d="
  M 357.61 225.10
  L 374.20 243.01
  A 1.12 1.12 0.0 0 1 374.14 244.60
  L 358.40 259.08
  Q 357.89 259.55 357.36 259.11
  Q 355.75 257.76 353.70 255.55
  Q 332.56 232.81 311.49 210.01
  Q 308.37 206.64 306.84 204.77
  Q 306.40 204.24 306.91 203.77
  L 322.88 188.97
  Q 323.34 188.54 323.86 188.91
  Q 325.35 190.01 326.49 191.26
  Q 335.14 200.72 343.77 210.16
  A 0.47 0.46 47.2 0 0 344.43 210.19
  L 355.23 200.32
  A 0.34 0.34 0.0 0 0 355.25 199.84
  L 335.46 178.48
  Q 334.96 177.95 335.50 177.45
  L 351.18 162.85
  Q 352.33 161.78 353.40 162.93
  L 403.03 216.76
  A 0.89 0.88 -42.5 0 1 402.97 218.01
  L 387.18 232.35
  Q 386.21 233.23 385.32 232.27
  L 369.08 214.87
  A 0.75 0.75 0.0 0 0 368.02 214.83
  L 357.64 224.35
  Q 357.25 224.71 357.61 225.10
  Z"
/>
<path fill="#a030b9" d="
  M 819.93 192.97
  L 835.88 208.08
  A 0.32 0.32 0.0 0 1 835.89 208.53
  L 784.27 263.00
  A 0.32 0.32 0.0 0 1 783.82 263.01
  L 768.22 248.02
  A 0.32 0.32 0.0 0 1 768.14 247.71
  L 777.76 209.73
  A 0.32 0.32 0.0 0 0 777.22 209.43
  L 753.79 234.00
  A 0.32 0.32 0.0 0 1 753.34 234.01
  L 737.48 219.01
  A 0.32 0.32 0.0 0 1 737.47 218.56
  L 789.00 164.17
  A 0.32 0.32 0.0 0 1 789.45 164.16
  L 805.20 178.92
  A 0.32 0.32 0.0 0 1 805.29 179.23
  L 795.54 217.34
  A 0.32 0.32 0.0 0 0 796.08 217.64
  L 819.48 192.98
  A 0.32 0.32 0.0 0 1 819.93 192.97
  Z"
/>
<path fill="#a030b9" d="
  M 561.50 199.81
  C 620.24 198.36 673.06 214.35 719.05 250.95
  C 769.76 291.30 802.90 346.42 810.64 411.06
  C 821.37 500.53 787.42 581.24 716.57 636.03
  Q 655.31 683.41 575.98 685.26
  C 530.93 686.31 487.43 676.81 449.30 654.38
  C 379.27 613.16 331.80 543.06 326.86 461.04
  Q 326.26 450.99 326.21 441.05
  C 325.84 366.56 359.42 300.12 416.66 253.41
  Q 479.87 201.84 561.50 199.81
  Z
  M 800.29 442.64
  A 230.89 230.89 0.0 0 0 569.40 211.75
  A 230.89 230.89 0.0 0 0 338.51 442.64
  A 230.89 230.89 0.0 0 0 569.40 673.53
  A 230.89 230.89 0.0 0 0 800.29 442.64
  Z"
/>
<path fill="#ffffff" d="
  M 800.29 442.64
  A 230.89 230.89 0.0 0 1 569.40 673.53
  A 230.89 230.89 0.0 0 1 338.51 442.64
  A 230.89 230.89 0.0 0 1 569.40 211.75
  A 230.89 230.89 0.0 0 1 800.29 442.64
  Z
  M 789.45 442.64
  A 220.05 220.05 0.0 0 0 569.40 222.59
  A 220.05 220.05 0.0 0 0 349.35 442.64
  A 220.05 220.05 0.0 0 0 569.40 662.69
  A 220.05 220.05 0.0 0 0 789.45 442.64
  Z"
/>
<path fill="#a030b9" d="
  M 789.45 442.64
  A 220.05 220.05 0.0 0 1 569.40 662.69
  A 220.05 220.05 0.0 0 1 349.35 442.64
  A 220.05 220.05 0.0 0 1 569.40 222.59
  A 220.05 220.05 0.0 0 1 789.45 442.64
  Z
  M 774.53 442.64
  A 205.12 205.12 0.0 0 0 569.41 237.52
  A 205.12 205.12 0.0 0 0 364.29 442.64
  A 205.12 205.12 0.0 0 0 569.41 647.76
  A 205.12 205.12 0.0 0 0 774.53 442.64
  Z"
/>
<path fill="#ffffff" d="
  M 774.53 442.64
  A 205.12 205.12 0.0 0 1 569.41 647.76
  A 205.12 205.12 0.0 0 1 364.29 442.64
  A 205.12 205.12 0.0 0 1 569.41 237.52
  A 205.12 205.12 0.0 0 1 774.53 442.64
  Z
  M 533.00 312.36
  C 552.18 288.61 589.80 288.74 609.86 310.90
  C 624.79 327.38 632.18 357.11 634.65 379.24
  Q 637.80 407.51 637.66 436.03
  A 0.94 0.94 0.0 0 0 638.64 436.98
  C 649.48 436.51 658.46 435.68 666.89 428.14
  Q 667.47 427.62 667.44 425.76
  C 666.98 397.82 665.02 367.81 657.09 341.96
  C 653.45 330.10 649.27 317.44 643.33 307.42
  C 632.64 289.39 617.01 276.49 596.26 271.22
  C 557.29 261.33 518.16 275.29 499.04 312.06
  Q 498.85 312.42 499.25 312.42
  L 532.13 312.77
  Q 532.66 312.78 533.00 312.36
  Z
  M 464.25 341.00
  A 0.25 0.25 0.0 0 1 464.50 340.75
  L 621.45 340.75
  A 0.83 0.82 81.0 0 0 622.23 339.67
  C 621.12 336.33 612.57 315.75 609.00 315.75
  Q 523.05 315.75 437.24 315.75
  A 0.49 0.49 0.0 0 0 436.75 316.24
  L 436.75 568.75
  Q 436.75 569.50 437.50 569.50
  L 463.75 569.50
  Q 464.25 569.50 464.25 569.00
  L 464.25 466.72
  A 0.77 0.77 0.0 0 1 465.04 465.95
  L 471.47 466.12
  Q 472.07 466.13 472.06 465.53
  L 471.69 441.97
  Q 471.68 441.50 471.22 441.50
  L 464.90 441.49
  Q 464.25 441.49 464.25 440.84
  L 464.25 341.00
  Z
  M 679.12 456.75
  C 708.58 437.66 714.39 400.03 707.73 367.75
  C 701.87 339.29 681.10 321.61 652.87 317.51
  A 0.34 0.34 0.0 0 0 652.50 317.95
  L 661.98 346.60
  Q 662.14 347.09 662.59 347.34
  Q 675.43 354.74 678.97 368.76
  C 683.67 387.34 683.68 421.50 665.26 434.15
  C 657.42 439.53 648.27 440.05 638.74 440.19
  Q 556.95 441.40 508.96 441.59
  Q 508.44 441.59 508.45 442.11
  L 508.63 465.43
  Q 508.63 466.02 509.22 466.01
  Q 572.89 465.95 636.56 466.06
  C 652.64 466.09 669.29 474.86 672.76 491.75
  Q 675.19 503.60 675.13 517.50
  Q 675.04 542.04 674.88 566.58
  Q 674.88 567.00 675.30 567.00
  L 704.49 567.00
  Q 705.11 567.00 705.11 566.38
  Q 704.96 535.09 704.97 503.79
  C 704.98 483.11 701.48 464.82 679.21 457.48
  Q 678.40 457.22 679.12 456.75
  Z
  M 599.02 583.55
  C 582.71 594.19 559.94 594.21 543.76 583.31
  C 511.90 561.85 506.54 500.07 505.59 465.25
  C 504.42 422.05 504.68 383.40 516.32 344.21
  Q 516.46 343.75 515.97 343.75
  L 486.51 343.75
  Q 485.99 343.75 485.86 344.25
  C 473.91 389.46 473.13 436.97 476.41 483.68
  C 479.93 533.79 492.81 606.44 554.52 615.56
  C 639.26 628.08 661.72 551.72 665.75 485.99
  C 666.36 475.95 645.51 470.23 637.69 469.51
  Q 637.05 469.45 637.03 470.09
  Q 636.04 497.89 630.61 525.17
  C 626.46 545.97 617.73 571.33 599.02 583.55
  Z"
/>
<path fill="#a030b9" d="
  M 854.48 284.84
  L 865.51 305.33
  A 0.86 0.86 0.0 0 1 865.09 306.53
  L 849.94 312.91
  A 0.88 0.87 64.2 0 1 848.83 312.52
  L 838.44 293.52
  A 0.51 0.51 0.0 0 0 837.75 293.32
  L 830.57 297.23
  A 0.66 0.66 0.0 0 0 830.30 298.12
  L 844.57 324.55
  Q 844.95 325.25 844.24 325.64
  L 829.24 333.73
  Q 827.63 334.60 826.75 332.98
  Q 814.66 310.68 802.99 289.00
  Q 801.75 286.70 803.89 285.56
  Q 835.78 268.55 867.46 251.58
  A 1.18 1.18 0.0 0 1 869.05 252.06
  L 892.84 296.17
  A 1.81 1.80 61.9 0 1 892.10 298.62
  L 876.76 306.72
  A 0.53 0.53 0.0 0 1 876.04 306.50
  L 862.12 280.84
  Q 861.84 280.32 861.32 280.60
  L 854.72 284.05
  Q 854.20 284.33 854.48 284.84
  Z"
/>
<path fill="#a030b9" d="
  M 300.56 301.91
  Q 298.97 302.44 300.43 303.26
  L 320.54 314.48
  Q 321.96 315.27 321.17 316.69
  L 311.53 333.99
  A 1.07 1.07 0.0 0 1 310.07 334.41
  L 245.98 298.82
  A 1.21 1.20 28.7 0 1 245.50 297.19
  Q 253.59 282.39 261.55 268.56
  C 274.46 246.15 306.47 255.26 306.87 280.76
  Q 306.87 281.16 307.27 281.14
  L 339.51 279.43
  Q 341.80 279.30 340.73 281.33
  Q 335.64 290.94 329.57 301.31
  Q 328.45 303.24 326.51 303.13
  Q 316.97 302.57 307.44 302.02
  C 306.06 301.94 302.32 301.32 300.56 301.91
  Z
  M 273.80 288.39
  L 282.69 293.27
  A 0.70 0.70 0.0 0 0 283.64 292.99
  L 286.49 287.80
  A 5.85 5.37 -61.2 0 0 284.61 280.08
  L 283.91 279.70
  A 5.85 5.37 -61.2 0 0 276.38 282.24
  L 273.52 287.44
  A 0.70 0.70 0.0 0 0 273.80 288.39
  Z"
/>
<path fill="#a030b9" d="
  M 609.86 310.90
  C 589.80 288.74 552.18 288.61 533.00 312.36
  Q 532.66 312.78 532.13 312.77
  L 499.25 312.42
  Q 498.85 312.42 499.04 312.06
  C 518.16 275.29 557.29 261.33 596.26 271.22
  C 617.01 276.49 632.64 289.39 643.33 307.42
  C 649.27 317.44 653.45 330.10 657.09 341.96
  C 665.02 367.81 666.98 397.82 667.44 425.76
  Q 667.47 427.62 666.89 428.14
  C 658.46 435.68 649.48 436.51 638.64 436.98
  A 0.94 0.94 0.0 0 1 637.66 436.03
  Q 637.80 407.51 634.65 379.24
  C 632.18 357.11 624.79 327.38 609.86 310.90
  Z"
/>
<path fill="#ffffff" d="
  M 273.80 288.39
  A 0.70 0.70 0.0 0 1 273.52 287.44
  L 276.38 282.24
  A 5.85 5.37 -61.2 0 1 283.91 279.70
  L 284.61 280.08
  A 5.85 5.37 -61.2 0 1 286.49 287.80
  L 283.64 292.99
  A 0.70 0.70 0.0 0 1 282.69 293.27
  L 273.80 288.39
  Z"
/>
<path fill="#a030b9" d="
  M 464.25 341.00
  L 464.25 440.84
  Q 464.25 441.49 464.90 441.49
  L 471.22 441.50
  Q 471.68 441.50 471.69 441.97
  L 472.06 465.53
  Q 472.07 466.13 471.47 466.12
  L 465.04 465.95
  A 0.77 0.77 0.0 0 0 464.25 466.72
  L 464.25 569.00
  Q 464.25 569.50 463.75 569.50
  L 437.50 569.50
  Q 436.75 569.50 436.75 568.75
  L 436.75 316.24
  A 0.49 0.49 0.0 0 1 437.24 315.75
  Q 523.05 315.75 609.00 315.75
  C 612.57 315.75 621.12 336.33 622.23 339.67
  A 0.83 0.82 81.0 0 1 621.45 340.75
  L 464.50 340.75
  A 0.25 0.25 0.0 0 0 464.25 341.00
  Z"
/>
<path fill="#a030b9" d="
  M 679.21 457.48
  C 701.48 464.82 704.98 483.11 704.97 503.79
  Q 704.96 535.09 705.11 566.38
  Q 705.11 567.00 704.49 567.00
  L 675.30 567.00
  Q 674.88 567.00 674.88 566.58
  Q 675.04 542.04 675.13 517.50
  Q 675.19 503.60 672.76 491.75
  C 669.29 474.86 652.64 466.09 636.56 466.06
  Q 572.89 465.95 509.22 466.01
  Q 508.63 466.02 508.63 465.43
  L 508.45 442.11
  Q 508.44 441.59 508.96 441.59
  Q 556.95 441.40 638.74 440.19
  C 648.27 440.05 657.42 439.53 665.26 434.15
  C 683.68 421.50 683.67 387.34 678.97 368.76
  Q 675.43 354.74 662.59 347.34
  Q 662.14 347.09 661.98 346.60
  L 652.50 317.95
  A 0.34 0.34 0.0 0 1 652.87 317.51
  C 681.10 321.61 701.87 339.29 707.73 367.75
  C 714.39 400.03 708.58 437.66 679.12 456.75
  Q 678.40 457.22 679.21 457.48
  Z"
/>
<path fill="#a030b9" d="
  M 599.02 583.55
  C 617.73 571.33 626.46 545.97 630.61 525.17
  Q 636.04 497.89 637.03 470.09
  Q 637.05 469.45 637.69 469.51
  C 645.51 470.23 666.36 475.95 665.75 485.99
  C 661.72 551.72 639.26 628.08 554.52 615.56
  C 492.81 606.44 479.93 533.79 476.41 483.68
  C 473.13 436.97 473.91 389.46 485.86 344.25
  Q 485.99 343.75 486.51 343.75
  L 515.97 343.75
  Q 516.46 343.75 516.32 344.21
  C 504.68 383.40 504.42 422.05 505.59 465.25
  C 506.54 500.07 511.90 561.85 543.76 583.31
  C 559.94 594.21 582.71 594.19 599.02 583.55
  Z"
/>
<path fill="#a030b9" d="
  M 840.92 448.45
  Q 882.83 447.95 924.75 448.41
  Q 937.97 448.55 950.16 448.16
  Q 951.82 448.11 951.77 449.77
  Q 949.10 544.94 904.34 626.58
  C 827.12 767.41 666.82 845.77 507.88 819.48
  C 324.99 789.22 191.10 634.40 187.14 449.44
  Q 187.11 448.21 188.34 448.21
  L 313.75 448.36
  A 0.92 0.92 0.0 0 1 314.67 449.25
  C 317.23 523.07 345.80 582.35 398.81 631.32
  C 457.01 685.08 533.64 705.65 611.74 693.45
  C 677.61 683.16 733.63 647.09 773.65 594.42
  Q 822.41 530.26 823.77 449.11
  Q 823.78 448.67 824.22 448.63
  C 829.87 448.08 836.62 448.50 840.92 448.45
  Z
  M 276.48 595.54
  A 0.63 0.63 0.0 0 1 277.30 596.46
  L 261.24 619.07
  A 0.96 0.95 -42.2 0 0 261.19 620.08
  L 273.35 641.85
  A 1.05 1.05 0.0 0 0 275.19 641.85
  L 291.03 613.51
  Q 291.27 613.08 291.71 613.31
  Q 307.64 621.74 320.00 611.75
  C 329.61 603.98 331.16 591.23 325.53 580.47
  Q 318.12 566.31 310.12 552.55
  A 1.58 1.57 -29.4 0 0 308.00 551.96
  L 244.00 587.56
  A 0.78 0.78 0.0 0 0 243.70 588.62
  L 253.46 606.10
  A 1.78 1.77 61.1 0 0 255.86 606.80
  L 276.48 595.54
  Z
  M 831.83 588.04
  L 845.52 562.67
  A 0.87 0.86 -61.7 0 0 845.17 561.49
  L 829.73 553.19
  A 1.33 1.33 0.0 0 0 827.93 553.73
  L 803.71 598.71
  A 0.70 0.69 -61.4 0 0 803.98 599.65
  Q 835.02 616.42 865.98 633.04
  Q 868.16 634.21 869.61 634.61
  Q 870.20 634.78 870.49 634.24
  L 895.37 588.01
  A 0.72 0.71 28.4 0 0 895.08 587.05
  L 879.37 578.59
  Q 878.39 578.06 877.86 579.05
  L 863.67 605.15
  A 0.60 0.60 0.0 0 1 862.86 605.40
  L 855.63 601.65
  Q 855.18 601.42 855.42 600.97
  L 865.66 581.89
  A 0.99 0.98 31.1 0 0 865.34 580.60
  L 851.72 571.49
  A 0.85 0.85 0.0 0 0 850.50 571.79
  L 839.58 591.84
  Q 839.11 592.70 838.25 592.23
  L 832.08 588.89
  Q 831.53 588.59 831.83 588.04
  Z
  M 769.19 638.58
  A 0.35 0.35 0.0 0 0 769.17 639.08
  L 792.37 663.77
  A 0.35 0.35 0.0 0 1 792.01 664.35
  L 754.80 652.62
  A 0.35 0.35 0.0 0 0 754.46 652.70
  L 738.64 667.47
  A 0.35 0.35 0.0 0 0 738.62 667.97
  L 790.13 722.36
  A 0.35 0.35 0.0 0 0 790.62 722.37
  L 806.54 707.48
  A 0.35 0.35 0.0 0 0 806.56 706.98
  L 783.42 682.49
  A 0.35 0.35 0.0 0 1 783.77 681.91
  L 821.15 693.29
  A 0.35 0.35 0.0 0 0 821.49 693.21
  L 837.01 678.52
  A 0.35 0.35 0.0 0 0 837.02 678.03
  L 785.64 623.72
  A 0.35 0.35 0.0 0 0 785.15 623.71
  L 769.19 638.58
  Z
  M 339.61 679.72
  A 0.70 0.70 0.0 0 1 340.60 679.68
  L 350.86 689.18
  A 0.70 0.70 0.0 0 1 350.89 690.17
  L 334.15 708.25
  A 0.70 0.70 0.0 0 0 334.18 709.24
  L 350.46 724.30
  A 0.70 0.70 0.0 0 0 351.45 724.27
  L 401.90 669.84
  A 0.70 0.70 0.0 0 0 401.87 668.85
  L 385.63 653.79
  A 0.70 0.70 0.0 0 0 384.64 653.83
  L 364.96 674.93
  A 0.70 0.70 0.0 0 1 363.97 674.96
  L 353.76 665.46
  A 0.70 0.70 0.0 0 1 353.72 664.47
  L 373.37 643.25
  A 0.70 0.70 0.0 0 0 373.33 642.25
  L 356.90 627.32
  A 0.70 0.70 0.0 0 0 355.92 627.36
  L 305.48 681.82
  A 0.70 0.70 0.0 0 0 305.52 682.82
  L 321.85 697.74
  A 0.70 0.70 0.0 0 0 322.83 697.70
  L 339.61 679.72
  Z
  M 712.0196 686.6141
  A 1.30 1.30 0.0 0 0 710.2606 686.0796
  L 692.6709 695.4716
  A 1.30 1.30 0.0 0 0 692.1365 697.2307
  L 726.5204 761.6259
  A 1.30 1.30 0.0 0 0 728.2794 762.1604
  L 745.8691 752.7684
  A 1.30 1.30 0.0 0 0 746.4035 751.0093
  L 712.0196 686.6141
  Z
  M 428.20 769.27
  C 474.22 794.19 510.54 725.93 467.62 700.90
  C 420.43 673.39 382.77 744.68 428.20 769.27
  Z
  M 678.19 762.88
  A 1.03 1.03 0.0 0 0 676.91 762.06
  L 657.80 767.17
  A 1.03 1.03 0.0 0 1 656.54 766.45
  L 642.59 714.46
  A 1.03 1.03 0.0 0 0 641.33 713.73
  L 621.42 718.98
  A 1.03 1.03 0.0 0 0 620.69 720.24
  L 639.64 791.24
  A 1.03 1.03 0.0 0 0 640.91 791.97
  L 680.42 781.42
  A 1.03 1.03 0.0 0 0 681.17 780.25
  L 678.19 762.88
  Z
  M 565.73 756.50
  A 0.35 0.35 0.0 0 1 565.07 756.64
  L 547.57 721.67
  A 0.35 0.35 0.0 0 0 547.28 721.48
  L 525.60 720.48
  A 0.35 0.35 0.0 0 0 525.24 720.81
  L 522.04 795.72
  A 0.35 0.35 0.0 0 0 522.38 796.08
  L 544.25 796.93
  A 0.35 0.35 0.0 0 0 544.61 796.59
  L 546.00 762.79
  A 0.35 0.35 0.0 0 1 546.66 762.65
  L 564.41 797.71
  A 0.35 0.35 0.0 0 0 564.71 797.90
  L 586.20 798.77
  A 0.35 0.35 0.0 0 0 586.56 798.43
  L 589.76 723.67
  A 0.35 0.35 0.0 0 0 589.42 723.30
  L 567.61 722.36
  A 0.35 0.35 0.0 0 0 567.24 722.69
  L 565.73 756.50
  Z"
/>
<path fill="#ffffff" d="
  M 276.48 595.54
  L 255.86 606.80
  A 1.78 1.77 61.1 0 1 253.46 606.10
  L 243.70 588.62
  A 0.78 0.78 0.0 0 1 244.00 587.56
  L 308.00 551.96
  A 1.58 1.57 -29.4 0 1 310.12 552.55
  Q 318.12 566.31 325.53 580.47
  C 331.16 591.23 329.61 603.98 320.00 611.75
  Q 307.64 621.74 291.71 613.31
  Q 291.27 613.08 291.03 613.51
  L 275.19 641.85
  A 1.05 1.05 0.0 0 1 273.35 641.85
  L 261.19 620.08
  A 0.96 0.95 -42.2 0 1 261.24 619.07
  L 277.30 596.46
  A 0.63 0.63 0.0 0 0 276.48 595.54
  Z
  M 302.55 580.94
  L 293.71 585.86
  A 0.71 0.71 0.0 0 0 293.43 586.83
  L 296.26 591.90
  A 6.07 5.58 60.9 0 0 304.08 594.49
  L 304.42 594.30
  A 6.07 5.58 60.9 0 0 306.34 586.29
  L 303.52 581.22
  A 0.71 0.71 0.0 0 0 302.55 580.94
  Z"
/>
<path fill="#ffffff" d="
  M 832.08 588.89
  L 838.25 592.23
  Q 839.11 592.70 839.58 591.84
  L 850.50 571.79
  A 0.85 0.85 0.0 0 1 851.72 571.49
  L 865.34 580.60
  A 0.99 0.98 31.1 0 1 865.66 581.89
  L 855.42 600.97
  Q 855.18 601.42 855.63 601.65
  L 862.86 605.40
  A 0.60 0.60 0.0 0 0 863.67 605.15
  L 877.86 579.05
  Q 878.39 578.06 879.37 578.59
  L 895.08 587.05
  A 0.72 0.71 28.4 0 1 895.37 588.01
  L 870.49 634.24
  Q 870.20 634.78 869.61 634.61
  Q 868.16 634.21 865.98 633.04
  Q 835.02 616.42 803.98 599.65
  A 0.70 0.69 -61.4 0 1 803.71 598.71
  L 827.93 553.73
  A 1.33 1.33 0.0 0 1 829.73 553.19
  L 845.17 561.49
  A 0.87 0.86 -61.7 0 1 845.52 562.67
  L 831.83 588.04
  Q 831.53 588.59 832.08 588.89
  Z"
/>
<path fill="#a030b9" d="
  M 302.55 580.94
  A 0.71 0.71 0.0 0 1 303.52 581.22
  L 306.34 586.29
  A 6.07 5.58 60.9 0 1 304.42 594.30
  L 304.08 594.49
  A 6.07 5.58 60.9 0 1 296.26 591.90
  L 293.43 586.83
  A 0.71 0.71 0.0 0 1 293.71 585.86
  L 302.55 580.94
  Z"
/>
<path fill="#ffffff" d="
  M 769.19 638.58
  L 785.15 623.71
  A 0.35 0.35 0.0 0 1 785.64 623.72
  L 837.02 678.03
  A 0.35 0.35 0.0 0 1 837.01 678.52
  L 821.49 693.21
  A 0.35 0.35 0.0 0 1 821.15 693.29
  L 783.77 681.91
  A 0.35 0.35 0.0 0 0 783.42 682.49
  L 806.56 706.98
  A 0.35 0.35 0.0 0 1 806.54 707.48
  L 790.62 722.37
  A 0.35 0.35 0.0 0 1 790.13 722.36
  L 738.62 667.97
  A 0.35 0.35 0.0 0 1 738.64 667.47
  L 754.46 652.70
  A 0.35 0.35 0.0 0 1 754.80 652.62
  L 792.01 664.35
  A 0.35 0.35 0.0 0 0 792.37 663.77
  L 769.17 639.08
  A 0.35 0.35 0.0 0 1 769.19 638.58
  Z"
/>
<path fill="#ffffff" d="
  M 339.61 679.72
  L 322.83 697.70
  A 0.70 0.70 0.0 0 1 321.85 697.74
  L 305.52 682.82
  A 0.70 0.70 0.0 0 1 305.48 681.82
  L 355.92 627.36
  A 0.70 0.70 0.0 0 1 356.90 627.32
  L 373.33 642.25
  A 0.70 0.70 0.0 0 1 373.37 643.25
  L 353.72 664.47
  A 0.70 0.70 0.0 0 0 353.76 665.46
  L 363.97 674.96
  A 0.70 0.70 0.0 0 0 364.96 674.93
  L 384.64 653.83
  A 0.70 0.70 0.0 0 1 385.63 653.79
  L 401.87 668.85
  A 0.70 0.70 0.0 0 1 401.90 669.84
  L 351.45 724.27
  A 0.70 0.70 0.0 0 1 350.46 724.30
  L 334.18 709.24
  A 0.70 0.70 0.0 0 1 334.15 708.25
  L 350.89 690.17
  A 0.70 0.70 0.0 0 0 350.86 689.18
  L 340.60 679.68
  A 0.70 0.70 0.0 0 0 339.61 679.72
  Z"
/>
<rect fill="#ffffff" x="-11.27" y="-37.80" transform="translate(719.27,724.12) rotate(-28.1)" width="22.54" height="75.60" rx="1.30"/>
<path fill="#ffffff" d="
  M 467.62 700.90
  C 510.54 725.93 474.22 794.19 428.20 769.27
  C 382.77 744.68 420.43 673.39 467.62 700.90
  Z
  M 440.4098 750.8401
  A 17.46 15.12 113.1 0 0 461.1677 740.7121
  A 17.46 15.12 113.1 0 0 454.1102 718.7199
  A 17.46 15.12 113.1 0 0 433.3523 728.8479
  A 17.46 15.12 113.1 0 0 440.4098 750.8401
  Z"
/>
<path fill="#ffffff" d="
  M 678.19 762.88
  L 681.17 780.25
  A 1.03 1.03 0.0 0 1 680.42 781.42
  L 640.91 791.97
  A 1.03 1.03 0.0 0 1 639.64 791.24
  L 620.69 720.24
  A 1.03 1.03 0.0 0 1 621.42 718.98
  L 641.33 713.73
  A 1.03 1.03 0.0 0 1 642.59 714.46
  L 656.54 766.45
  A 1.03 1.03 0.0 0 0 657.80 767.17
  L 676.91 762.06
  A 1.03 1.03 0.0 0 1 678.19 762.88
  Z"
/>
<ellipse fill="#a030b9" cx="0.00" cy="0.00" transform="translate(447.26,734.78) rotate(113.1)" rx="17.46" ry="15.12"/>
<path fill="#ffffff" d="
  M 565.73 756.50
  L 567.24 722.69
  A 0.35 0.35 0.0 0 1 567.61 722.36
  L 589.42 723.30
  A 0.35 0.35 0.0 0 1 589.76 723.67
  L 586.56 798.43
  A 0.35 0.35 0.0 0 1 586.20 798.77
  L 564.71 797.90
  A 0.35 0.35 0.0 0 1 564.41 797.71
  L 546.66 762.65
  A 0.35 0.35 0.0 0 0 546.00 762.79
  L 544.61 796.59
  A 0.35 0.35 0.0 0 1 544.25 796.93
  L 522.38 796.08
  A 0.35 0.35 0.0 0 1 522.04 795.72
  L 525.24 720.81
  A 0.35 0.35 0.0 0 1 525.60 720.48
  L 547.28 721.48
  A 0.35 0.35 0.0 0 1 547.57 721.67
  L 565.07 756.64
  A 0.35 0.35 0.0 0 0 565.73 756.50
  Z"
/>
</svg>
