<?xml version="1.0" encoding="UTF-8" standalone="no"?>
<!DOCTYPE svg PUBLIC "-//W3C//DTD SVG 1.1//EN" "http://www.w3.org/Graphics/SVG/1.1/DTD/svg11.dtd">
<svg xmlns="http://www.w3.org/2000/svg" version="1.1" viewBox="0.00 0.00 946.00 607.00">
<g stroke-width="2.00" fill="none" stroke-linecap="butt">
<path stroke="#cd93db" vector-effect="non-scaling-stroke" d="
  M 748.66 303.57
  A 276.38 276.38 0.0 0 0 472.28 27.19
  A 276.38 276.38 0.0 0 0 195.90 303.57
  A 276.38 276.38 0.0 0 0 472.28 579.95
  A 276.38 276.38 0.0 0 0 748.66 303.57"
/>
<path stroke="#cd93db" vector-effect="non-scaling-stroke" d="
  M 469.01 79.09
  L 455.10 56.45
  A 1.64 1.62 -16.9 0 0 453.64 55.68
  L 439.81 56.27
  A 0.77 0.77 0.0 0 0 439.08 57.07
  L 441.28 108.24
  A 1.16 1.15 -2.5 0 0 442.49 109.34
  L 455.96 108.78
  Q 457.15 108.73 457.10 107.54
  L 456.19 85.93
  Q 456.10 83.73 457.25 85.60
  L 470.63 107.29
  Q 471.15 108.12 472.13 108.08
  L 485.92 107.51
  Q 486.63 107.48 486.60 106.76
  L 484.41 55.09
  A 0.67 0.67 0.0 0 0 483.71 54.45
  L 469.52 55.01
  A 0.99 0.98 88.0 0 0 468.57 56.04
  L 469.55 78.92
  Q 469.60 80.05 469.01 79.09"
/>
<path stroke="#cd93db" vector-effect="non-scaling-stroke" d="
  M 541.23 105.92
  A 0.92 0.92 0.0 0 0 540.60 104.72
  L 527.62 101.22
  A 0.92 0.92 0.0 0 1 526.97 100.09
  L 536.60 63.93
  A 0.92 0.92 0.0 0 0 535.95 62.80
  L 522.38 59.18
  A 0.92 0.92 0.0 0 0 521.25 59.83
  L 508.07 109.37
  A 0.92 0.92 0.0 0 0 508.72 110.50
  L 536.04 117.78
  A 0.92 0.92 0.0 0 0 537.14 117.21
  L 541.23 105.92"
/>
<path stroke="#cd93db" vector-effect="non-scaling-stroke" d="
  M 384.26 127.28
  C 399.04 128.03 415.19 116.58 414.75 100.50
  C 414.40 87.78 405.44 73.26 391.69 71.44
  C 378.07 69.65 362.27 78.72 359.66 92.76
  C 356.84 107.98 368.09 126.47 384.26 127.28"
/>
<path stroke="#cd93db" vector-effect="non-scaling-stroke" d="
  M 595.8480 87.9590
  A 1.06 1.06 0.0 0 0 595.4097 86.5254
  L 583.3486 80.1124
  A 1.06 1.06 0.0 0 0 581.9151 80.5507
  L 557.9720 125.5810
  A 1.06 1.06 0.0 0 0 558.4103 127.0146
  L 570.4714 133.4276
  A 1.06 1.06 0.0 0 0 571.9049 132.9893
  L 595.8480 87.9590"
/>
<path stroke="#cd93db" vector-effect="non-scaling-stroke" d="
  M 330.63 143.53
  A 0.87 0.87 0.0 0 1 331.86 143.58
  L 343.08 155.75
  A 0.87 0.87 0.0 0 0 344.31 155.80
  L 355.23 145.72
  A 0.87 0.87 0.0 0 0 355.28 144.49
  L 320.42 106.74
  A 0.87 0.87 0.0 0 0 319.19 106.69
  L 308.27 116.77
  A 0.87 0.87 0.0 0 0 308.22 118.00
  L 321.45 132.32
  A 0.87 0.87 0.0 0 1 321.41 133.55
  L 314.75 139.76
  A 0.87 0.87 0.0 0 1 313.52 139.71
  L 300.29 125.33
  A 0.87 0.87 0.0 0 0 299.06 125.28
  L 288.14 135.38
  A 0.87 0.87 0.0 0 0 288.09 136.61
  L 322.94 174.38
  A 0.87 0.87 0.0 0 0 324.17 174.43
  L 335.09 164.35
  A 0.87 0.87 0.0 0 0 335.14 163.12
  L 323.88 150.91
  A 0.87 0.87 0.0 0 1 323.93 149.68
  L 330.63 143.53"
/>
<path stroke="#cd93db" vector-effect="non-scaling-stroke" d="
  M 601.39 156.84
  A 0.34 0.34 0.0 0 0 601.87 156.82
  L 617.92 139.88
  A 0.34 0.34 0.0 0 1 618.50 140.19
  L 611.82 166.54
  A 0.34 0.34 0.0 0 0 611.92 166.87
  L 622.82 177.14
  A 0.34 0.34 0.0 0 0 623.30 177.12
  L 659.35 138.98
  A 0.34 0.34 0.0 0 0 659.33 138.50
  L 648.31 128.15
  A 0.34 0.34 0.0 0 0 647.83 128.17
  L 631.79 145.09
  A 0.34 0.34 0.0 0 1 631.21 144.78
  L 637.89 118.41
  A 0.34 0.34 0.0 0 0 637.79 118.08
  L 626.88 107.85
  A 0.34 0.34 0.0 0 0 626.40 107.87
  L 590.31 145.95
  A 0.34 0.34 0.0 0 0 590.33 146.43
  L 601.39 156.84"
/>
<path stroke="#cd93db" vector-effect="non-scaling-stroke" d="
  M 392.42 455.09
  C 444.37 482.98 513.25 480.78 563.06 448.58
  C 608.47 419.24 638.55 372.12 642.55 318.01
  C 645.43 278.96 636.64 240.44 614.23 208.18
  C 576.33 153.63 516.26 126.04 449.92 134.08
  C 405.22 139.49 367.14 162.31 338.77 197.01
  C 307.30 235.49 295.93 284.33 303.82 332.93
  C 312.25 384.83 346.68 430.53 392.42 455.09"
/>
<path stroke="#cd93db" vector-effect="non-scaling-stroke" d="
  M 676.99 189.83
  A 0.75 0.75 0.0 0 1 678.01 190.14
  L 687.44 207.53
  A 0.75 0.75 0.0 0 0 688.46 207.84
  L 699.32 202.01
  A 0.75 0.75 0.0 0 0 699.62 200.99
  L 682.63 169.48
  A 0.75 0.75 0.0 0 0 681.61 169.17
  L 636.15 193.63
  A 0.75 0.75 0.0 0 0 635.85 194.65
  L 653.27 226.92
  A 0.75 0.75 0.0 0 0 654.29 227.22
  L 665.12 221.34
  A 0.75 0.75 0.0 0 0 665.43 220.32
  L 655.65 202.17
  A 0.75 0.75 0.0 0 1 655.95 201.15
  L 660.38 198.77
  A 0.75 0.75 0.0 0 1 661.40 199.07
  L 668.44 211.99
  A 0.75 0.75 0.0 0 0 669.38 212.32
  L 679.79 208.00
  A 0.75 0.75 0.0 0 0 680.16 206.95
  L 672.68 193.00
  A 0.75 0.75 0.0 0 1 672.99 191.99
  L 676.99 189.83"
/>
<path stroke="#cd93db" vector-effect="non-scaling-stroke" d="
  M 284.26 206.02
  Q 280.97 204.20 284.72 204.45
  Q 292.74 205.00 300.55 205.47
  C 302.00 205.55 303.07 205.82 303.89 204.37
  Q 308.04 197.03 311.88 189.90
  A 0.72 0.72 0.0 0 0 311.21 188.84
  L 288.52 189.90
  Q 288.05 189.93 288.03 189.46
  C 287.60 179.84 280.93 172.41 271.35 172.26
  C 263.61 172.14 258.37 177.25 254.59 183.84
  Q 249.56 192.62 244.97 201.02
  A 1.17 1.16 29.1 0 0 245.43 202.61
  L 290.28 227.54
  A 0.63 0.62 28.8 0 0 291.13 227.30
  L 297.84 215.15
  A 1.39 1.38 -60.9 0 0 297.31 213.27
  L 284.26 206.02"
/>
<path stroke="#cd93db" vector-effect="non-scaling-stroke" d="
  M 568.69 454.40
  C 518.68 487.25 452.03 491.09 397.79 466.58
  C 368.47 453.33 342.40 430.21 324.16 404.07
  C 303.93 375.07 295.09 343.51 293.49 307.98
  Q 293.46 307.50 292.99 307.50
  L 204.28 307.50
  Q 203.86 307.50 203.87 307.92
  C 206.28 434.73 297.53 544.70 423.00 567.52
  C 586.08 597.18 737.87 474.85 740.65 307.94
  Q 740.66 307.50 740.22 307.50
  L 651.49 307.50
  A 0.59 0.58 0.5 0 0 650.90 308.07
  C 649.96 368.33 618.84 421.46 568.69 454.40"
/>
<path stroke="#cd93db" vector-effect="non-scaling-stroke" d="
  M 391.7960 110.6222
  A 12.30 10.58 67.0 0 0 396.7289 95.1661
  A 12.30 10.58 67.0 0 0 382.1840 87.9778
  A 12.30 10.58 67.0 0 0 377.2511 103.4339
  A 12.30 10.58 67.0 0 0 391.7960 110.6222"
/>
<path stroke="#cd93db" vector-effect="non-scaling-stroke" d="
  M 634.50 303.57
  A 162.22 162.22 0.0 0 0 472.28 141.35
  A 162.22 162.22 0.0 0 0 310.06 303.57
  A 162.22 162.22 0.0 0 0 472.28 465.79
  A 162.22 162.22 0.0 0 0 634.50 303.57"
/>
<path stroke="#cd93db" vector-effect="non-scaling-stroke" d="
  M 626.90 303.57
  A 154.61 154.61 0.0 0 0 472.29 148.96
  A 154.61 154.61 0.0 0 0 317.68 303.57
  A 154.61 154.61 0.0 0 0 472.29 458.18
  A 154.61 154.61 0.0 0 0 626.90 303.57"
/>
<path stroke="#cd93db" vector-effect="non-scaling-stroke" d="
  M 616.39 303.57
  A 144.09 144.09 0.0 0 0 472.30 159.48
  A 144.09 144.09 0.0 0 0 328.21 303.57
  A 144.09 144.09 0.0 0 0 472.30 447.66
  A 144.09 144.09 0.0 0 0 616.39 303.57"
/>
<path stroke="#cd93db" vector-effect="non-scaling-stroke" d="
  M 446.67 211.98
  C 464.02 191.13 495.80 197.06 507.23 220.77
  C 518.65 244.44 520.44 272.45 520.19 298.73
  Q 520.18 299.31 520.76 299.36
  Q 531.92 300.28 540.72 293.76
  Q 541.15 293.43 541.15 292.89
  C 540.81 264.77 537.96 239.58 527.53 215.23
  C 518.72 194.65 501.66 182.97 479.80 181.17
  C 455.70 179.18 434.55 189.58 423.19 211.44
  Q 422.93 211.93 423.49 211.94
  L 445.95 212.31
  Q 446.39 212.32 446.67 211.98"
/>
<path stroke="#cd93db" vector-effect="non-scaling-stroke" d="
  M 399.00 320.00
  L 403.50 320.00
  Q 404.00 320.00 403.99 319.50
  L 403.67 302.96
  Q 403.66 302.50 403.20 302.50
  L 399.00 302.50
  Q 398.50 302.50 398.50 302.00
  L 398.50 232.25
  Q 398.50 231.75 399.00 231.75
  L 509.03 231.75
  Q 509.61 231.75 509.41 231.20
  Q 506.35 222.56 501.20 214.98
  Q 500.87 214.50 500.29 214.50
  L 379.75 214.50
  A 0.50 0.50 0.0 0 0 379.25 215.00
  L 379.25 392.25
  Q 379.25 392.75 379.75 392.75
  L 398.00 392.75
  Q 398.50 392.75 398.50 392.25
  L 398.50 320.50
  Q 398.50 320.00 399.00 320.00"
/>
<path stroke="#cd93db" vector-effect="non-scaling-stroke" d="
  M 549.65 313.36
  Q 563.77 303.85 568.25 287.75
  C 577.01 256.26 567.61 221.14 530.65 215.59
  Q 530.47 215.56 530.53 215.73
  L 537.19 235.77
  Q 537.34 236.23 537.76 236.49
  C 553.15 246.04 552.94 268.70 548.84 283.75
  C 544.31 300.41 532.16 301.71 517.24 301.93
  Q 467.88 302.65 430.04 302.50
  Q 429.49 302.50 429.49 303.05
  L 429.51 318.80
  Q 429.52 320.01 430.73 320.01
  Q 471.94 319.97 513.72 320.03
  C 538.25 320.06 546.33 329.54 546.52 353.50
  Q 546.66 371.02 546.18 389.88
  Q 546.15 391.00 547.26 391.00
  L 567.03 391.00
  A 0.50 0.50 0.0 0 0 567.53 390.50
  Q 567.54 365.86 567.23 341.32
  C 567.06 327.56 562.28 319.46 549.72 314.07
  Q 549.04 313.78 549.65 313.36"
/>
<path stroke="#cd93db" vector-effect="non-scaling-stroke" d="
  M 490.12 404.32
  C 477.94 410.63 462.24 409.19 451.63 400.47
  C 440.70 391.50 435.11 375.34 432.36 361.72
  C 426.47 332.63 426.00 302.09 428.12 272.57
  Q 429.51 253.21 434.91 234.55
  Q 435.07 234.00 434.50 234.00
  L 414.03 234.00
  Q 413.66 234.00 413.57 234.35
  C 405.55 265.83 404.64 298.83 406.68 331.08
  Q 408.22 355.26 415.10 378.46
  C 425.29 412.85 450.49 432.03 487.32 424.57
  C 528.15 416.30 537.36 369.30 539.88 335.08
  C 540.50 326.66 526.19 323.09 520.33 322.51
  Q 519.78 322.46 519.76 323.00
  C 518.88 347.10 515.01 391.42 490.12 404.32"
/>
<path stroke="#cd93db" vector-effect="non-scaling-stroke" d="
  M 264.50 194.92
  L 271.19 198.66
  A 0.26 0.26 0.0 0 0 271.54 198.56
  L 273.52 195.03
  A 4.45 3.85 -60.8 0 0 272.33 189.26
  L 271.91 189.03
  A 4.45 3.85 -60.8 0 0 266.38 191.04
  L 264.40 194.57
  A 0.26 0.26 0.0 0 0 264.50 194.92"
/>
<path stroke="#cd93db" vector-effect="non-scaling-stroke" d="
  M 266.35 411.11
  A 0.54 0.54 0.0 0 1 267.05 411.89
  Q 261.84 419.32 256.61 426.60
  Q 255.68 427.89 256.71 429.80
  Q 260.48 436.74 264.46 443.67
  A 0.69 0.68 44.7 0 0 265.66 443.67
  L 276.77 423.75
  Q 277.03 423.30 277.48 423.56
  C 294.18 433.12 309.10 416.12 300.51 399.66
  Q 294.32 387.79 289.94 380.51
  Q 289.61 379.97 289.07 380.27
  L 244.38 405.10
  Q 243.31 405.70 243.91 406.76
  L 250.66 418.88
  A 0.81 0.80 61.0 0 0 251.75 419.20
  L 266.35 411.11"
/>
<path stroke="#cd93db" vector-effect="non-scaling-stroke" d="
  M 662.10 408.38
  A 0.79 0.79 0.0 0 1 661.04 408.70
  L 657.08 406.64
  A 0.79 0.79 0.0 0 1 656.75 405.57
  L 666.07 388.17
  A 0.79 0.79 0.0 0 0 665.75 387.10
  L 655.00 381.24
  A 0.79 0.79 0.0 0 0 653.92 381.56
  L 636.96 413.04
  A 0.79 0.79 0.0 0 0 637.29 414.11
  L 682.67 438.54
  A 0.79 0.79 0.0 0 0 683.74 438.22
  L 701.08 406.07
  A 0.79 0.79 0.0 0 0 700.76 405.00
  L 689.98 399.16
  A 0.79 0.79 0.0 0 0 688.90 399.48
  L 679.12 417.61
  A 0.79 0.79 0.0 0 1 678.04 417.93
  L 673.68 415.54
  A 0.79 0.79 0.0 0 1 673.36 414.47
  L 680.26 401.62
  A 0.79 0.79 0.0 0 0 680.01 400.59
  L 670.72 394.31
  A 0.79 0.79 0.0 0 0 669.58 394.59
  L 662.10 408.38"
/>
<path stroke="#cd93db" vector-effect="non-scaling-stroke" d="
  M 622.27 471.85
  A 0.18 0.18 0.0 0 1 622.45 471.56
  L 648.52 479.76
  Q 649.10 479.94 649.55 479.53
  L 659.73 469.99
  Q 660.18 469.57 659.85 469.04
  Q 658.96 467.64 657.81 466.44
  Q 641.83 449.71 624.68 431.48
  Q 623.91 430.66 623.09 431.43
  L 613.16 440.88
  A 1.05 1.04 -43.6 0 0 613.12 442.35
  L 629.03 459.12
  A 0.24 0.24 0.0 0 1 628.78 459.51
  L 602.71 451.29
  Q 602.30 451.17 601.98 451.46
  L 591.69 461.17
  Q 591.26 461.57 591.56 462.08
  Q 592.25 463.24 593.47 464.53
  Q 610.27 482.20 627.03 499.98
  A 0.69 0.69 0.0 0 0 628.00 500.01
  L 638.27 490.17
  A 0.95 0.94 -43.5 0 0 638.31 488.84
  L 622.27 471.85"
/>
<path stroke="#cd93db" vector-effect="non-scaling-stroke" d="
  M 321.12 460.53
  A 0.87 0.87 0.0 0 1 321.06 459.30
  L 334.27 444.98
  A 0.87 0.87 0.0 0 0 334.22 443.75
  L 323.32 433.62
  A 0.87 0.87 0.0 0 0 322.09 433.67
  L 287.22 471.48
  A 0.87 0.87 0.0 0 0 287.27 472.71
  L 298.21 482.75
  A 0.87 0.87 0.0 0 0 299.44 482.70
  L 310.74 470.47
  A 0.87 0.87 0.0 0 1 311.98 470.42
  L 318.63 476.72
  A 0.87 0.87 0.0 0 1 318.67 477.94
  L 307.37 490.04
  A 0.87 0.87 0.0 0 0 307.41 491.27
  L 318.38 501.37
  A 0.87 0.87 0.0 0 0 319.61 501.32
  L 354.42 463.57
  A 0.87 0.87 0.0 0 0 354.37 462.34
  L 343.49 452.26
  A 0.87 0.87 0.0 0 0 342.26 452.31
  L 329.03 466.59
  A 0.87 0.87 0.0 0 1 327.80 466.64
  L 321.12 460.53"
/>
<path stroke="#cd93db" vector-effect="non-scaling-stroke" d="
  M 572.5537 475.2861
  A 1.12 1.12 0.0 0 0 571.0390 474.8230
  L 559.0133 481.2172
  A 1.12 1.12 0.0 0 0 558.5502 482.7319
  L 582.4463 527.6739
  A 1.12 1.12 0.0 0 0 583.9610 528.1370
  L 595.9867 521.7428
  A 1.12 1.12 0.0 0 0 596.4498 520.2281
  L 572.5537 475.2861"
/>
<path stroke="#cd93db" vector-effect="non-scaling-stroke" d="
  M 398.46 483.85
  C 362.27 466.43 339.80 526.85 381.37 536.19
  C 411.92 543.06 427.94 498.04 398.46 483.85"
/>
<path stroke="#cd93db" vector-effect="non-scaling-stroke" d="
  M 534.60 531.67
  A 1.00 1.00 0.0 0 1 533.38 530.96
  L 523.71 494.95
  A 1.00 1.00 0.0 0 0 522.48 494.24
  L 509.07 497.85
  A 1.00 1.00 0.0 0 0 508.37 499.07
  L 521.53 548.43
  A 1.00 1.00 0.0 0 0 522.76 549.14
  L 549.98 541.89
  A 1.00 1.00 0.0 0 0 550.71 540.75
  L 548.67 529.08
  A 1.00 1.00 0.0 0 0 547.43 528.29
  L 534.60 531.67"
/>
<path stroke="#cd93db" vector-effect="non-scaling-stroke" d="
  M 469.20 524.08
  L 457.39 500.81
  Q 456.79 499.63 455.47 499.57
  L 442.25 498.99
  A 0.96 0.96 0.0 0 0 441.25 499.90
  Q 440.16 524.00 439.21 548.05
  C 439.12 550.35 437.95 552.15 441.45 552.22
  Q 447.48 552.36 453.24 552.74
  A 1.58 1.58 0.0 0 0 454.92 551.23
  L 455.83 528.91
  A 0.29 0.28 33.2 0 1 456.37 528.80
  L 468.43 552.49
  A 1.78 1.77 77.2 0 0 469.96 553.46
  L 483.49 553.82
  A 0.84 0.84 0.0 0 0 484.35 553.02
  L 486.51 502.07
  A 1.17 1.17 0.0 0 0 485.39 500.86
  L 471.78 500.26
  A 1.00 0.99 -87.4 0 0 470.74 501.22
  L 469.70 523.97
  Q 469.65 524.97 469.20 524.08"
/>
<path stroke="#cd93db" vector-effect="non-scaling-stroke" d="
  M 284.88 400.82
  L 278.70 404.32
  A 0.49 0.49 0.0 0 0 278.52 404.99
  L 280.54 408.57
  A 4.24 3.99 60.5 0 0 286.10 410.29
  L 286.19 410.24
  A 4.24 3.99 60.5 0 0 287.57 404.59
  L 285.55 401.01
  A 0.49 0.49 0.0 0 0 284.88 400.82"
/>
<path stroke="#cd93db" vector-effect="non-scaling-stroke" d="
  M 381.6960 520.2762
  A 12.27 10.58 113.1 0 0 396.2417 513.1409
  A 12.27 10.58 113.1 0 0 391.3240 497.7038
  A 12.27 10.58 113.1 0 0 376.7783 504.8391
  A 12.27 10.58 113.1 0 0 381.6960 520.2762"
/>
</g>
<path fill="#ffffff" d="
  M 0.00 0.00
  L 946.00 0.00
  L 946.00 607.00
  L 0.00 607.00
  L 0.00 0.00
  Z
  M 748.66 303.57
  A 276.38 276.38 0.0 0 0 472.28 27.19
  A 276.38 276.38 0.0 0 0 195.90 303.57
  A 276.38 276.38 0.0 0 0 472.28 579.95
  A 276.38 276.38 0.0 0 0 748.66 303.57
  Z"
/>
<path fill="#9b26b6" d="
  M 748.66 303.57
  A 276.38 276.38 0.0 0 1 472.28 579.95
  A 276.38 276.38 0.0 0 1 195.90 303.57
  A 276.38 276.38 0.0 0 1 472.28 27.19
  A 276.38 276.38 0.0 0 1 748.66 303.57
  Z
  M 469.01 79.09
  L 455.10 56.45
  A 1.64 1.62 -16.9 0 0 453.64 55.68
  L 439.81 56.27
  A 0.77 0.77 0.0 0 0 439.08 57.07
  L 441.28 108.24
  A 1.16 1.15 -2.5 0 0 442.49 109.34
  L 455.96 108.78
  Q 457.15 108.73 457.10 107.54
  L 456.19 85.93
  Q 456.10 83.73 457.25 85.60
  L 470.63 107.29
  Q 471.15 108.12 472.13 108.08
  L 485.92 107.51
  Q 486.63 107.48 486.60 106.76
  L 484.41 55.09
  A 0.67 0.67 0.0 0 0 483.71 54.45
  L 469.52 55.01
  A 0.99 0.98 88.0 0 0 468.57 56.04
  L 469.55 78.92
  Q 469.60 80.05 469.01 79.09
  Z
  M 541.23 105.92
  A 0.92 0.92 0.0 0 0 540.60 104.72
  L 527.62 101.22
  A 0.92 0.92 0.0 0 1 526.97 100.09
  L 536.60 63.93
  A 0.92 0.92 0.0 0 0 535.95 62.80
  L 522.38 59.18
  A 0.92 0.92 0.0 0 0 521.25 59.83
  L 508.07 109.37
  A 0.92 0.92 0.0 0 0 508.72 110.50
  L 536.04 117.78
  A 0.92 0.92 0.0 0 0 537.14 117.21
  L 541.23 105.92
  Z
  M 384.26 127.28
  C 399.04 128.03 415.19 116.58 414.75 100.50
  C 414.40 87.78 405.44 73.26 391.69 71.44
  C 378.07 69.65 362.27 78.72 359.66 92.76
  C 356.84 107.98 368.09 126.47 384.26 127.28
  Z
  M 595.8480 87.9590
  A 1.06 1.06 0.0 0 0 595.4097 86.5254
  L 583.3486 80.1124
  A 1.06 1.06 0.0 0 0 581.9151 80.5507
  L 557.9720 125.5810
  A 1.06 1.06 0.0 0 0 558.4103 127.0146
  L 570.4714 133.4276
  A 1.06 1.06 0.0 0 0 571.9049 132.9893
  L 595.8480 87.9590
  Z
  M 330.63 143.53
  A 0.87 0.87 0.0 0 1 331.86 143.58
  L 343.08 155.75
  A 0.87 0.87 0.0 0 0 344.31 155.80
  L 355.23 145.72
  A 0.87 0.87 0.0 0 0 355.28 144.49
  L 320.42 106.74
  A 0.87 0.87 0.0 0 0 319.19 106.69
  L 308.27 116.77
  A 0.87 0.87 0.0 0 0 308.22 118.00
  L 321.45 132.32
  A 0.87 0.87 0.0 0 1 321.41 133.55
  L 314.75 139.76
  A 0.87 0.87 0.0 0 1 313.52 139.71
  L 300.29 125.33
  A 0.87 0.87 0.0 0 0 299.06 125.28
  L 288.14 135.38
  A 0.87 0.87 0.0 0 0 288.09 136.61
  L 322.94 174.38
  A 0.87 0.87 0.0 0 0 324.17 174.43
  L 335.09 164.35
  A 0.87 0.87 0.0 0 0 335.14 163.12
  L 323.88 150.91
  A 0.87 0.87 0.0 0 1 323.93 149.68
  L 330.63 143.53
  Z
  M 601.39 156.84
  A 0.34 0.34 0.0 0 0 601.87 156.82
  L 617.92 139.88
  A 0.34 0.34 0.0 0 1 618.50 140.19
  L 611.82 166.54
  A 0.34 0.34 0.0 0 0 611.92 166.87
  L 622.82 177.14
  A 0.34 0.34 0.0 0 0 623.30 177.12
  L 659.35 138.98
  A 0.34 0.34 0.0 0 0 659.33 138.50
  L 648.31 128.15
  A 0.34 0.34 0.0 0 0 647.83 128.17
  L 631.79 145.09
  A 0.34 0.34 0.0 0 1 631.21 144.78
  L 637.89 118.41
  A 0.34 0.34 0.0 0 0 637.79 118.08
  L 626.88 107.85
  A 0.34 0.34 0.0 0 0 626.40 107.87
  L 590.31 145.95
  A 0.34 0.34 0.0 0 0 590.33 146.43
  L 601.39 156.84
  Z
  M 392.42 455.09
  C 444.37 482.98 513.25 480.78 563.06 448.58
  C 608.47 419.24 638.55 372.12 642.55 318.01
  C 645.43 278.96 636.64 240.44 614.23 208.18
  C 576.33 153.63 516.26 126.04 449.92 134.08
  C 405.22 139.49 367.14 162.31 338.77 197.01
  C 307.30 235.49 295.93 284.33 303.82 332.93
  C 312.25 384.83 346.68 430.53 392.42 455.09
  Z
  M 676.99 189.83
  A 0.75 0.75 0.0 0 1 678.01 190.14
  L 687.44 207.53
  A 0.75 0.75 0.0 0 0 688.46 207.84
  L 699.32 202.01
  A 0.75 0.75 0.0 0 0 699.62 200.99
  L 682.63 169.48
  A 0.75 0.75 0.0 0 0 681.61 169.17
  L 636.15 193.63
  A 0.75 0.75 0.0 0 0 635.85 194.65
  L 653.27 226.92
  A 0.75 0.75 0.0 0 0 654.29 227.22
  L 665.12 221.34
  A 0.75 0.75 0.0 0 0 665.43 220.32
  L 655.65 202.17
  A 0.75 0.75 0.0 0 1 655.95 201.15
  L 660.38 198.77
  A 0.75 0.75 0.0 0 1 661.40 199.07
  L 668.44 211.99
  A 0.75 0.75 0.0 0 0 669.38 212.32
  L 679.79 208.00
  A 0.75 0.75 0.0 0 0 680.16 206.95
  L 672.68 193.00
  A 0.75 0.75 0.0 0 1 672.99 191.99
  L 676.99 189.83
  Z
  M 284.26 206.02
  Q 280.97 204.20 284.72 204.45
  Q 292.74 205.00 300.55 205.47
  C 302.00 205.55 303.07 205.82 303.89 204.37
  Q 308.04 197.03 311.88 189.90
  A 0.72 0.72 0.0 0 0 311.21 188.84
  L 288.52 189.90
  Q 288.05 189.93 288.03 189.46
  C 287.60 179.84 280.93 172.41 271.35 172.26
  C 263.61 172.14 258.37 177.25 254.59 183.84
  Q 249.56 192.62 244.97 201.02
  A 1.17 1.16 29.1 0 0 245.43 202.61
  L 290.28 227.54
  A 0.63 0.62 28.8 0 0 291.13 227.30
  L 297.84 215.15
  A 1.39 1.38 -60.9 0 0 297.31 213.27
  L 284.26 206.02
  Z
  M 568.69 454.40
  C 518.68 487.25 452.03 491.09 397.79 466.58
  C 368.47 453.33 342.40 430.21 324.16 404.07
  C 303.93 375.07 295.09 343.51 293.49 307.98
  Q 293.46 307.50 292.99 307.50
  L 204.28 307.50
  Q 203.86 307.50 203.87 307.92
  C 206.28 434.73 297.53 544.70 423.00 567.52
  C 586.08 597.18 737.87 474.85 740.65 307.94
  Q 740.66 307.50 740.22 307.50
  L 651.49 307.50
  A 0.59 0.58 0.5 0 0 650.90 308.07
  C 649.96 368.33 618.84 421.46 568.69 454.40
  Z"
/>
<path fill="#ffffff" d="
  M 469.55 78.92
  L 468.57 56.04
  A 0.99 0.98 88.0 0 1 469.52 55.01
  L 483.71 54.45
  A 0.67 0.67 0.0 0 1 484.41 55.09
  L 486.60 106.76
  Q 486.63 107.48 485.92 107.51
  L 472.13 108.08
  Q 471.15 108.12 470.63 107.29
  L 457.25 85.60
  Q 456.10 83.73 456.19 85.93
  L 457.10 107.54
  Q 457.15 108.73 455.96 108.78
  L 442.49 109.34
  A 1.16 1.15 -2.5 0 1 441.28 108.24
  L 439.08 57.07
  A 0.77 0.77 0.0 0 1 439.81 56.27
  L 453.64 55.68
  A 1.64 1.62 -16.9 0 1 455.10 56.45
  L 469.01 79.09
  Q 469.60 80.05 469.55 78.92
  Z"
/>
<path fill="#ffffff" d="
  M 541.23 105.92
  L 537.14 117.21
  A 0.92 0.92 0.0 0 1 536.04 117.78
  L 508.72 110.50
  A 0.92 0.92 0.0 0 1 508.07 109.37
  L 521.25 59.83
  A 0.92 0.92 0.0 0 1 522.38 59.18
  L 535.95 62.80
  A 0.92 0.92 0.0 0 1 536.60 63.93
  L 526.97 100.09
  A 0.92 0.92 0.0 0 0 527.62 101.22
  L 540.60 104.72
  A 0.92 0.92 0.0 0 1 541.23 105.92
  Z"
/>
<path fill="#ffffff" d="
  M 414.75 100.50
  C 415.19 116.58 399.04 128.03 384.26 127.28
  C 368.09 126.47 356.84 107.98 359.66 92.76
  C 362.27 78.72 378.07 69.65 391.69 71.44
  C 405.44 73.26 414.40 87.78 414.75 100.50
  Z
  M 391.7960 110.6222
  A 12.30 10.58 67.0 0 0 396.7289 95.1661
  A 12.30 10.58 67.0 0 0 382.1840 87.9778
  A 12.30 10.58 67.0 0 0 377.2511 103.4339
  A 12.30 10.58 67.0 0 0 391.7960 110.6222
  Z"
/>
<rect fill="#ffffff" x="-7.89" y="-26.56" transform="translate(576.91,106.77) rotate(28.0)" width="15.78" height="53.12" rx="1.06"/>
<ellipse fill="#9b26b6" cx="0.00" cy="0.00" transform="translate(386.99,99.30) rotate(67.0)" rx="12.30" ry="10.58"/>
<path fill="#ffffff" d="
  M 330.63 143.53
  L 323.93 149.68
  A 0.87 0.87 0.0 0 0 323.88 150.91
  L 335.14 163.12
  A 0.87 0.87 0.0 0 1 335.09 164.35
  L 324.17 174.43
  A 0.87 0.87 0.0 0 1 322.94 174.38
  L 288.09 136.61
  A 0.87 0.87 0.0 0 1 288.14 135.38
  L 299.06 125.28
  A 0.87 0.87 0.0 0 1 300.29 125.33
  L 313.52 139.71
  A 0.87 0.87 0.0 0 0 314.75 139.76
  L 321.41 133.55
  A 0.87 0.87 0.0 0 0 321.45 132.32
  L 308.22 118.00
  A 0.87 0.87 0.0 0 1 308.27 116.77
  L 319.19 106.69
  A 0.87 0.87 0.0 0 1 320.42 106.74
  L 355.28 144.49
  A 0.87 0.87 0.0 0 1 355.23 145.72
  L 344.31 155.80
  A 0.87 0.87 0.0 0 1 343.08 155.75
  L 331.86 143.58
  A 0.87 0.87 0.0 0 0 330.63 143.53
  Z"
/>
<path fill="#ffffff" d="
  M 601.39 156.84
  L 590.33 146.43
  A 0.34 0.34 0.0 0 1 590.31 145.95
  L 626.40 107.87
  A 0.34 0.34 0.0 0 1 626.88 107.85
  L 637.79 118.08
  A 0.34 0.34 0.0 0 1 637.89 118.41
  L 631.21 144.78
  A 0.34 0.34 0.0 0 0 631.79 145.09
  L 647.83 128.17
  A 0.34 0.34 0.0 0 1 648.31 128.15
  L 659.33 138.50
  A 0.34 0.34 0.0 0 1 659.35 138.98
  L 623.30 177.12
  A 0.34 0.34 0.0 0 1 622.82 177.14
  L 611.92 166.87
  A 0.34 0.34 0.0 0 1 611.82 166.54
  L 618.50 140.19
  A 0.34 0.34 0.0 0 0 617.92 139.88
  L 601.87 156.82
  A 0.34 0.34 0.0 0 1 601.39 156.84
  Z"
/>
<path fill="#ffffff" d="
  M 563.06 448.58
  C 513.25 480.78 444.37 482.98 392.42 455.09
  C 346.68 430.53 312.25 384.83 303.82 332.93
  C 295.93 284.33 307.30 235.49 338.77 197.01
  C 367.14 162.31 405.22 139.49 449.92 134.08
  C 516.26 126.04 576.33 153.63 614.23 208.18
  C 636.64 240.44 645.43 278.96 642.55 318.01
  C 638.55 372.12 608.47 419.24 563.06 448.58
  Z
  M 634.50 303.57
  A 162.22 162.22 0.0 0 0 472.28 141.35
  A 162.22 162.22 0.0 0 0 310.06 303.57
  A 162.22 162.22 0.0 0 0 472.28 465.79
  A 162.22 162.22 0.0 0 0 634.50 303.57
  Z"
/>
<path fill="#9b26b6" d="
  M 634.50 303.57
  A 162.22 162.22 0.0 0 1 472.28 465.79
  A 162.22 162.22 0.0 0 1 310.06 303.57
  A 162.22 162.22 0.0 0 1 472.28 141.35
  A 162.22 162.22 0.0 0 1 634.50 303.57
  Z
  M 626.90 303.57
  A 154.61 154.61 0.0 0 0 472.29 148.96
  A 154.61 154.61 0.0 0 0 317.68 303.57
  A 154.61 154.61 0.0 0 0 472.29 458.18
  A 154.61 154.61 0.0 0 0 626.90 303.57
  Z"
/>
<path fill="#ffffff" d="
  M 626.90 303.57
  A 154.61 154.61 0.0 0 1 472.29 458.18
  A 154.61 154.61 0.0 0 1 317.68 303.57
  A 154.61 154.61 0.0 0 1 472.29 148.96
  A 154.61 154.61 0.0 0 1 626.90 303.57
  Z
  M 616.39 303.57
  A 144.09 144.09 0.0 0 0 472.30 159.48
  A 144.09 144.09 0.0 0 0 328.21 303.57
  A 144.09 144.09 0.0 0 0 472.30 447.66
  A 144.09 144.09 0.0 0 0 616.39 303.57
  Z"
/>
<path fill="#9b26b6" d="
  M 616.39 303.57
  A 144.09 144.09 0.0 0 1 472.30 447.66
  A 144.09 144.09 0.0 0 1 328.21 303.57
  A 144.09 144.09 0.0 0 1 472.30 159.48
  A 144.09 144.09 0.0 0 1 616.39 303.57
  Z
  M 446.67 211.98
  C 464.02 191.13 495.80 197.06 507.23 220.77
  C 518.65 244.44 520.44 272.45 520.19 298.73
  Q 520.18 299.31 520.76 299.36
  Q 531.92 300.28 540.72 293.76
  Q 541.15 293.43 541.15 292.89
  C 540.81 264.77 537.96 239.58 527.53 215.23
  C 518.72 194.65 501.66 182.97 479.80 181.17
  C 455.70 179.18 434.55 189.58 423.19 211.44
  Q 422.93 211.93 423.49 211.94
  L 445.95 212.31
  Q 446.39 212.32 446.67 211.98
  Z
  M 399.00 320.00
  L 403.50 320.00
  Q 404.00 320.00 403.99 319.50
  L 403.67 302.96
  Q 403.66 302.50 403.20 302.50
  L 399.00 302.50
  Q 398.50 302.50 398.50 302.00
  L 398.50 232.25
  Q 398.50 231.75 399.00 231.75
  L 509.03 231.75
  Q 509.61 231.75 509.41 231.20
  Q 506.35 222.56 501.20 214.98
  Q 500.87 214.50 500.29 214.50
  L 379.75 214.50
  A 0.50 0.50 0.0 0 0 379.25 215.00
  L 379.25 392.25
  Q 379.25 392.75 379.75 392.75
  L 398.00 392.75
  Q 398.50 392.75 398.50 392.25
  L 398.50 320.50
  Q 398.50 320.00 399.00 320.00
  Z
  M 549.65 313.36
  Q 563.77 303.85 568.25 287.75
  C 577.01 256.26 567.61 221.14 530.65 215.59
  Q 530.47 215.56 530.53 215.73
  L 537.19 235.77
  Q 537.34 236.23 537.76 236.49
  C 553.15 246.04 552.94 268.70 548.84 283.75
  C 544.31 300.41 532.16 301.71 517.24 301.93
  Q 467.88 302.65 430.04 302.50
  Q 429.49 302.50 429.49 303.05
  L 429.51 318.80
  Q 429.52 320.01 430.73 320.01
  Q 471.94 319.97 513.72 320.03
  C 538.25 320.06 546.33 329.54 546.52 353.50
  Q 546.66 371.02 546.18 389.88
  Q 546.15 391.00 547.26 391.00
  L 567.03 391.00
  A 0.50 0.50 0.0 0 0 567.53 390.50
  Q 567.54 365.86 567.23 341.32
  C 567.06 327.56 562.28 319.46 549.72 314.07
  Q 549.04 313.78 549.65 313.36
  Z
  M 490.12 404.32
  C 477.94 410.63 462.24 409.19 451.63 400.47
  C 440.70 391.50 435.11 375.34 432.36 361.72
  C 426.47 332.63 426.00 302.09 428.12 272.57
  Q 429.51 253.21 434.91 234.55
  Q 435.07 234.00 434.50 234.00
  L 414.03 234.00
  Q 413.66 234.00 413.57 234.35
  C 405.55 265.83 404.64 298.83 406.68 331.08
  Q 408.22 355.26 415.10 378.46
  C 425.29 412.85 450.49 432.03 487.32 424.57
  C 528.15 416.30 537.36 369.30 539.88 335.08
  C 540.50 326.66 526.19 323.09 520.33 322.51
  Q 519.78 322.46 519.76 323.00
  C 518.88 347.10 515.01 391.42 490.12 404.32
  Z"
/>
<path fill="#ffffff" d="
  M 676.99 189.83
  L 672.99 191.99
  A 0.75 0.75 0.0 0 0 672.68 193.00
  L 680.16 206.95
  A 0.75 0.75 0.0 0 1 679.79 208.00
  L 669.38 212.32
  A 0.75 0.75 0.0 0 1 668.44 211.99
  L 661.40 199.07
  A 0.75 0.75 0.0 0 0 660.38 198.77
  L 655.95 201.15
  A 0.75 0.75 0.0 0 0 655.65 202.17
  L 665.43 220.32
  A 0.75 0.75 0.0 0 1 665.12 221.34
  L 654.29 227.22
  A 0.75 0.75 0.0 0 1 653.27 226.92
  L 635.85 194.65
  A 0.75 0.75 0.0 0 1 636.15 193.63
  L 681.61 169.17
  A 0.75 0.75 0.0 0 1 682.63 169.48
  L 699.62 200.99
  A 0.75 0.75 0.0 0 1 699.32 202.01
  L 688.46 207.84
  A 0.75 0.75 0.0 0 1 687.44 207.53
  L 678.01 190.14
  A 0.75 0.75 0.0 0 0 676.99 189.83
  Z"
/>
<path fill="#ffffff" d="
  M 284.26 206.02
  L 297.31 213.27
  A 1.39 1.38 -60.9 0 1 297.84 215.15
  L 291.13 227.30
  A 0.63 0.62 28.8 0 1 290.28 227.54
  L 245.43 202.61
  A 1.17 1.16 29.1 0 1 244.97 201.02
  Q 249.56 192.62 254.59 183.84
  C 258.37 177.25 263.61 172.14 271.35 172.26
  C 280.93 172.41 287.60 179.84 288.03 189.46
  Q 288.05 189.93 288.52 189.90
  L 311.21 188.84
  A 0.72 0.72 0.0 0 1 311.88 189.90
  Q 308.04 197.03 303.89 204.37
  C 303.07 205.82 302.00 205.55 300.55 205.47
  Q 292.74 205.00 284.72 204.45
  Q 280.97 204.20 284.26 206.02
  Z
  M 264.50 194.92
  L 271.19 198.66
  A 0.26 0.26 0.0 0 0 271.54 198.56
  L 273.52 195.03
  A 4.45 3.85 -60.8 0 0 272.33 189.26
  L 271.91 189.03
  A 4.45 3.85 -60.8 0 0 266.38 191.04
  L 264.40 194.57
  A 0.26 0.26 0.0 0 0 264.50 194.92
  Z"
/>
<path fill="#ffffff" d="
  M 507.23 220.77
  C 495.80 197.06 464.02 191.13 446.67 211.98
  Q 446.39 212.32 445.95 212.31
  L 423.49 211.94
  Q 422.93 211.93 423.19 211.44
  C 434.55 189.58 455.70 179.18 479.80 181.17
  C 501.66 182.97 518.72 194.65 527.53 215.23
  C 537.96 239.58 540.81 264.77 541.15 292.89
  Q 541.15 293.43 540.72 293.76
  Q 531.92 300.28 520.76 299.36
  Q 520.18 299.31 520.19 298.73
  C 520.44 272.45 518.65 244.44 507.23 220.77
  Z"
/>
<path fill="#9b26b6" d="
  M 264.50 194.92
  A 0.26 0.26 0.0 0 1 264.40 194.57
  L 266.38 191.04
  A 4.45 3.85 -60.8 0 1 271.91 189.03
  L 272.33 189.26
  A 4.45 3.85 -60.8 0 1 273.52 195.03
  L 271.54 198.56
  A 0.26 0.26 0.0 0 1 271.19 198.66
  L 264.50 194.92
  Z"
/>
<path fill="#ffffff" d="
  M 398.50 320.50
  L 398.50 392.25
  Q 398.50 392.75 398.00 392.75
  L 379.75 392.75
  Q 379.25 392.75 379.25 392.25
  L 379.25 215.00
  A 0.50 0.50 0.0 0 1 379.75 214.50
  L 500.29 214.50
  Q 500.87 214.50 501.20 214.98
  Q 506.35 222.56 509.41 231.20
  Q 509.61 231.75 509.03 231.75
  L 399.00 231.75
  Q 398.50 231.75 398.50 232.25
  L 398.50 302.00
  Q 398.50 302.50 399.00 302.50
  L 403.20 302.50
  Q 403.66 302.50 403.67 302.96
  L 403.99 319.50
  Q 404.00 320.00 403.50 320.00
  L 399.00 320.00
  Q 398.50 320.00 398.50 320.50
  Z"
/>
<path fill="#ffffff" d="
  M 549.72 314.07
  C 562.28 319.46 567.06 327.56 567.23 341.32
  Q 567.54 365.86 567.53 390.50
  A 0.50 0.50 0.0 0 1 567.03 391.00
  L 547.26 391.00
  Q 546.15 391.00 546.18 389.88
  Q 546.66 371.02 546.52 353.50
  C 546.33 329.54 538.25 320.06 513.72 320.03
  Q 471.94 319.97 430.73 320.01
  Q 429.52 320.01 429.51 318.80
  L 429.49 303.05
  Q 429.49 302.50 430.04 302.50
  Q 467.88 302.65 517.24 301.93
  C 532.16 301.71 544.31 300.41 548.84 283.75
  C 552.94 268.70 553.15 246.04 537.76 236.49
  Q 537.34 236.23 537.19 235.77
  L 530.53 215.73
  Q 530.47 215.56 530.65 215.59
  C 567.61 221.14 577.01 256.26 568.25 287.75
  Q 563.77 303.85 549.65 313.36
  Q 549.04 313.78 549.72 314.07
  Z"
/>
<path fill="#ffffff" d="
  M 451.63 400.47
  C 462.24 409.19 477.94 410.63 490.12 404.32
  C 515.01 391.42 518.88 347.10 519.76 323.00
  Q 519.78 322.46 520.33 322.51
  C 526.19 323.09 540.50 326.66 539.88 335.08
  C 537.36 369.30 528.15 416.30 487.32 424.57
  C 450.49 432.03 425.29 412.85 415.10 378.46
  Q 408.22 355.26 406.68 331.08
  C 404.64 298.83 405.55 265.83 413.57 234.35
  Q 413.66 234.00 414.03 234.00
  L 434.50 234.00
  Q 435.07 234.00 434.91 234.55
  Q 429.51 253.21 428.12 272.57
  C 426.00 302.09 426.47 332.63 432.36 361.72
  C 435.11 375.34 440.70 391.50 451.63 400.47
  Z"
/>
<path fill="#ffffff" d="
  M 397.79 466.58
  C 452.03 491.09 518.68 487.25 568.69 454.40
  C 618.84 421.46 649.96 368.33 650.90 308.07
  A 0.59 0.58 0.5 0 1 651.49 307.50
  L 740.22 307.50
  Q 740.66 307.50 740.65 307.94
  C 737.87 474.85 586.08 597.18 423.00 567.52
  C 297.53 544.70 206.28 434.73 203.87 307.92
  Q 203.86 307.50 204.28 307.50
  L 292.99 307.50
  Q 293.46 307.50 293.49 307.98
  C 295.09 343.51 303.93 375.07 324.16 404.07
  C 342.40 430.21 368.47 453.33 397.79 466.58
  Z
  M 266.35 411.11
  A 0.54 0.54 0.0 0 1 267.05 411.89
  Q 261.84 419.32 256.61 426.60
  Q 255.68 427.89 256.71 429.80
  Q 260.48 436.74 264.46 443.67
  A 0.69 0.68 44.7 0 0 265.66 443.67
  L 276.77 423.75
  Q 277.03 423.30 277.48 423.56
  C 294.18 433.12 309.10 416.12 300.51 399.66
  Q 294.32 387.79 289.94 380.51
  Q 289.61 379.97 289.07 380.27
  L 244.38 405.10
  Q 243.31 405.70 243.91 406.76
  L 250.66 418.88
  A 0.81 0.80 61.0 0 0 251.75 419.20
  L 266.35 411.11
  Z
  M 662.10 408.38
  A 0.79 0.79 0.0 0 1 661.04 408.70
  L 657.08 406.64
  A 0.79 0.79 0.0 0 1 656.75 405.57
  L 666.07 388.17
  A 0.79 0.79 0.0 0 0 665.75 387.10
  L 655.00 381.24
  A 0.79 0.79 0.0 0 0 653.92 381.56
  L 636.96 413.04
  A 0.79 0.79 0.0 0 0 637.29 414.11
  L 682.67 438.54
  A 0.79 0.79 0.0 0 0 683.74 438.22
  L 701.08 406.07
  A 0.79 0.79 0.0 0 0 700.76 405.00
  L 689.98 399.16
  A 0.79 0.79 0.0 0 0 688.90 399.48
  L 679.12 417.61
  A 0.79 0.79 0.0 0 1 678.04 417.93
  L 673.68 415.54
  A 0.79 0.79 0.0 0 1 673.36 414.47
  L 680.26 401.62
  A 0.79 0.79 0.0 0 0 680.01 400.59
  L 670.72 394.31
  A 0.79 0.79 0.0 0 0 669.58 394.59
  L 662.10 408.38
  Z
  M 622.27 471.85
  A 0.18 0.18 0.0 0 1 622.45 471.56
  L 648.52 479.76
  Q 649.10 479.94 649.55 479.53
  L 659.73 469.99
  Q 660.18 469.57 659.85 469.04
  Q 658.96 467.64 657.81 466.44
  Q 641.83 449.71 624.68 431.48
  Q 623.91 430.66 623.09 431.43
  L 613.16 440.88
  A 1.05 1.04 -43.6 0 0 613.12 442.35
  L 629.03 459.12
  A 0.24 0.24 0.0 0 1 628.78 459.51
  L 602.71 451.29
  Q 602.30 451.17 601.98 451.46
  L 591.69 461.17
  Q 591.26 461.57 591.56 462.08
  Q 592.25 463.24 593.47 464.53
  Q 610.27 482.20 627.03 499.98
  A 0.69 0.69 0.0 0 0 628.00 500.01
  L 638.27 490.17
  A 0.95 0.94 -43.5 0 0 638.31 488.84
  L 622.27 471.85
  Z
  M 321.12 460.53
  A 0.87 0.87 0.0 0 1 321.06 459.30
  L 334.27 444.98
  A 0.87 0.87 0.0 0 0 334.22 443.75
  L 323.32 433.62
  A 0.87 0.87 0.0 0 0 322.09 433.67
  L 287.22 471.48
  A 0.87 0.87 0.0 0 0 287.27 472.71
  L 298.21 482.75
  A 0.87 0.87 0.0 0 0 299.44 482.70
  L 310.74 470.47
  A 0.87 0.87 0.0 0 1 311.98 470.42
  L 318.63 476.72
  A 0.87 0.87 0.0 0 1 318.67 477.94
  L 307.37 490.04
  A 0.87 0.87 0.0 0 0 307.41 491.27
  L 318.38 501.37
  A 0.87 0.87 0.0 0 0 319.61 501.32
  L 354.42 463.57
  A 0.87 0.87 0.0 0 0 354.37 462.34
  L 343.49 452.26
  A 0.87 0.87 0.0 0 0 342.26 452.31
  L 329.03 466.59
  A 0.87 0.87 0.0 0 1 327.80 466.64
  L 321.12 460.53
  Z
  M 572.5537 475.2861
  A 1.12 1.12 0.0 0 0 571.0390 474.8230
  L 559.0133 481.2172
  A 1.12 1.12 0.0 0 0 558.5502 482.7319
  L 582.4463 527.6739
  A 1.12 1.12 0.0 0 0 583.9610 528.1370
  L 595.9867 521.7428
  A 1.12 1.12 0.0 0 0 596.4498 520.2281
  L 572.5537 475.2861
  Z
  M 398.46 483.85
  C 362.27 466.43 339.80 526.85 381.37 536.19
  C 411.92 543.06 427.94 498.04 398.46 483.85
  Z
  M 534.60 531.67
  A 1.00 1.00 0.0 0 1 533.38 530.96
  L 523.71 494.95
  A 1.00 1.00 0.0 0 0 522.48 494.24
  L 509.07 497.85
  A 1.00 1.00 0.0 0 0 508.37 499.07
  L 521.53 548.43
  A 1.00 1.00 0.0 0 0 522.76 549.14
  L 549.98 541.89
  A 1.00 1.00 0.0 0 0 550.71 540.75
  L 548.67 529.08
  A 1.00 1.00 0.0 0 0 547.43 528.29
  L 534.60 531.67
  Z
  M 469.20 524.08
  L 457.39 500.81
  Q 456.79 499.63 455.47 499.57
  L 442.25 498.99
  A 0.96 0.96 0.0 0 0 441.25 499.90
  Q 440.16 524.00 439.21 548.05
  C 439.12 550.35 437.95 552.15 441.45 552.22
  Q 447.48 552.36 453.24 552.74
  A 1.58 1.58 0.0 0 0 454.92 551.23
  L 455.83 528.91
  A 0.29 0.28 33.2 0 1 456.37 528.80
  L 468.43 552.49
  A 1.78 1.77 77.2 0 0 469.96 553.46
  L 483.49 553.82
  A 0.84 0.84 0.0 0 0 484.35 553.02
  L 486.51 502.07
  A 1.17 1.17 0.0 0 0 485.39 500.86
  L 471.78 500.26
  A 1.00 0.99 -87.4 0 0 470.74 501.22
  L 469.70 523.97
  Q 469.65 524.97 469.20 524.08
  Z"
/>
<path fill="#9b26b6" d="
  M 266.35 411.11
  L 251.75 419.20
  A 0.81 0.80 61.0 0 1 250.66 418.88
  L 243.91 406.76
  Q 243.31 405.70 244.38 405.10
  L 289.07 380.27
  Q 289.61 379.97 289.94 380.51
  Q 294.32 387.79 300.51 399.66
  C 309.10 416.12 294.18 433.12 277.48 423.56
  Q 277.03 423.30 276.77 423.75
  L 265.66 443.67
  A 0.69 0.68 44.7 0 1 264.46 443.67
  Q 260.48 436.74 256.71 429.80
  Q 255.68 427.89 256.61 426.60
  Q 261.84 419.32 267.05 411.89
  A 0.54 0.54 0.0 0 0 266.35 411.11
  Z
  M 284.88 400.82
  L 278.70 404.32
  A 0.49 0.49 0.0 0 0 278.52 404.99
  L 280.54 408.57
  A 4.24 3.99 60.5 0 0 286.10 410.29
  L 286.19 410.24
  A 4.24 3.99 60.5 0 0 287.57 404.59
  L 285.55 401.01
  A 0.49 0.49 0.0 0 0 284.88 400.82
  Z"
/>
<path fill="#9b26b6" d="
  M 662.10 408.38
  L 669.58 394.59
  A 0.79 0.79 0.0 0 1 670.72 394.31
  L 680.01 400.59
  A 0.79 0.79 0.0 0 1 680.26 401.62
  L 673.36 414.47
  A 0.79 0.79 0.0 0 0 673.68 415.54
  L 678.04 417.93
  A 0.79 0.79 0.0 0 0 679.12 417.61
  L 688.90 399.48
  A 0.79 0.79 0.0 0 1 689.98 399.16
  L 700.76 405.00
  A 0.79 0.79 0.0 0 1 701.08 406.07
  L 683.74 438.22
  A 0.79 0.79 0.0 0 1 682.67 438.54
  L 637.29 414.11
  A 0.79 0.79 0.0 0 1 636.96 413.04
  L 653.92 381.56
  A 0.79 0.79 0.0 0 1 655.00 381.24
  L 665.75 387.10
  A 0.79 0.79 0.0 0 1 666.07 388.17
  L 656.75 405.57
  A 0.79 0.79 0.0 0 0 657.08 406.64
  L 661.04 408.70
  A 0.79 0.79 0.0 0 0 662.10 408.38
  Z"
/>
<path fill="#ffffff" d="
  M 284.88 400.82
  A 0.49 0.49 0.0 0 1 285.55 401.01
  L 287.57 404.59
  A 4.24 3.99 60.5 0 1 286.19 410.24
  L 286.10 410.29
  A 4.24 3.99 60.5 0 1 280.54 408.57
  L 278.52 404.99
  A 0.49 0.49 0.0 0 1 278.70 404.32
  L 284.88 400.82
  Z"
/>
<path fill="#9b26b6" d="
  M 622.27 471.85
  L 638.31 488.84
  A 0.95 0.94 -43.5 0 1 638.27 490.17
  L 628.00 500.01
  A 0.69 0.69 0.0 0 1 627.03 499.98
  Q 610.27 482.20 593.47 464.53
  Q 592.25 463.24 591.56 462.08
  Q 591.26 461.57 591.69 461.17
  L 601.98 451.46
  Q 602.30 451.17 602.71 451.29
  L 628.78 459.51
  A 0.24 0.24 0.0 0 0 629.03 459.12
  L 613.12 442.35
  A 1.05 1.04 -43.6 0 1 613.16 440.88
  L 623.09 431.43
  Q 623.91 430.66 624.68 431.48
  Q 641.83 449.71 657.81 466.44
  Q 658.96 467.64 659.85 469.04
  Q 660.18 469.57 659.73 469.99
  L 649.55 479.53
  Q 649.10 479.94 648.52 479.76
  L 622.45 471.56
  A 0.18 0.18 0.0 0 0 622.27 471.85
  Z"
/>
<path fill="#9b26b6" d="
  M 321.12 460.53
  L 327.80 466.64
  A 0.87 0.87 0.0 0 0 329.03 466.59
  L 342.26 452.31
  A 0.87 0.87 0.0 0 1 343.49 452.26
  L 354.37 462.34
  A 0.87 0.87 0.0 0 1 354.42 463.57
  L 319.61 501.32
  A 0.87 0.87 0.0 0 1 318.38 501.37
  L 307.41 491.27
  A 0.87 0.87 0.0 0 1 307.37 490.04
  L 318.67 477.94
  A 0.87 0.87 0.0 0 0 318.63 476.72
  L 311.98 470.42
  A 0.87 0.87 0.0 0 0 310.74 470.47
  L 299.44 482.70
  A 0.87 0.87 0.0 0 1 298.21 482.75
  L 287.27 472.71
  A 0.87 0.87 0.0 0 1 287.22 471.48
  L 322.09 433.67
  A 0.87 0.87 0.0 0 1 323.32 433.62
  L 334.22 443.75
  A 0.87 0.87 0.0 0 1 334.27 444.98
  L 321.06 459.30
  A 0.87 0.87 0.0 0 0 321.12 460.53
  Z"
/>
<rect fill="#9b26b6" x="-7.93" y="-26.57" transform="translate(577.50,501.48) rotate(-28.0)" width="15.86" height="53.14" rx="1.12"/>
<path fill="#9b26b6" d="
  M 381.37 536.19
  C 339.80 526.85 362.27 466.43 398.46 483.85
  C 427.94 498.04 411.92 543.06 381.37 536.19
  Z
  M 381.6960 520.2762
  A 12.27 10.58 113.1 0 0 396.2417 513.1409
  A 12.27 10.58 113.1 0 0 391.3240 497.7038
  A 12.27 10.58 113.1 0 0 376.7783 504.8391
  A 12.27 10.58 113.1 0 0 381.6960 520.2762
  Z"
/>
<path fill="#9b26b6" d="
  M 534.60 531.67
  L 547.43 528.29
  A 1.00 1.00 0.0 0 1 548.67 529.08
  L 550.71 540.75
  A 1.00 1.00 0.0 0 1 549.98 541.89
  L 522.76 549.14
  A 1.00 1.00 0.0 0 1 521.53 548.43
  L 508.37 499.07
  A 1.00 1.00 0.0 0 1 509.07 497.85
  L 522.48 494.24
  A 1.00 1.00 0.0 0 1 523.71 494.95
  L 533.38 530.96
  A 1.00 1.00 0.0 0 0 534.60 531.67
  Z"
/>
<ellipse fill="#ffffff" cx="0.00" cy="0.00" transform="translate(386.51,508.99) rotate(113.1)" rx="12.27" ry="10.58"/>
<path fill="#9b26b6" d="
  M 469.70 523.97
  L 470.74 501.22
  A 1.00 0.99 -87.4 0 1 471.78 500.26
  L 485.39 500.86
  A 1.17 1.17 0.0 0 1 486.51 502.07
  L 484.35 553.02
  A 0.84 0.84 0.0 0 1 483.49 553.82
  L 469.96 553.46
  A 1.78 1.77 77.2 0 1 468.43 552.49
  L 456.37 528.80
  A 0.29 0.28 33.2 0 0 455.83 528.91
  L 454.92 551.23
  A 1.58 1.58 0.0 0 1 453.24 552.74
  Q 447.48 552.36 441.45 552.22
  C 437.95 552.15 439.12 550.35 439.21 548.05
  Q 440.16 524.00 441.25 499.90
  A 0.96 0.96 0.0 0 1 442.25 498.99
  L 455.47 499.57
  Q 456.79 499.63 457.39 500.81
  L 469.20 524.08
  Q 469.65 524.97 469.70 523.97
  Z"
/>
</svg>
